%TF.GenerationSoftware,KiCad,Pcbnew,10.0.5*%
%TF.CreationDate,2026-10-03T19:54:52+03:00*%
%TF.ProjectId,UNI_MOSFET_KEY,554e495f-4d4f-4534-9645-545f4b45592e,rev?*%
%TF.SameCoordinates,Original*%
%TF.FileFunction,Legend,Bot*%
%TF.FilePolarity,Positive*%
%FSLAX46Y46*%
G04 Gerber Fmt 4.6, Leading zero omitted, Abs format (unit mm)*
G04 Created by KiCad (PCBNEW 10.0.5) date 2026-10-03 19:54:52*
%MOMM*%
%LPD*%
G01*
G04 APERTURE LIST*
%ADD10C,0.100000*%
G04 APERTURE END LIST*
D10*
X119291353Y-113705752D02*
X119053258Y-114372419D01*
X119053258Y-114372419D02*
X118815163Y-113705752D01*
X117910401Y-114372419D02*
X118481829Y-114372419D01*
X118196115Y-114372419D02*
X118196115Y-113372419D01*
X118196115Y-113372419D02*
X118291353Y-113515276D01*
X118291353Y-113515276D02*
X118386591Y-113610514D01*
X118386591Y-113610514D02*
X118481829Y-113658133D01*
X117481829Y-114277180D02*
X117434210Y-114324800D01*
X117434210Y-114324800D02*
X117481829Y-114372419D01*
X117481829Y-114372419D02*
X117529448Y-114324800D01*
X117529448Y-114324800D02*
X117481829Y-114277180D01*
X117481829Y-114277180D02*
X117481829Y-114372419D01*
X116815163Y-113372419D02*
X116719925Y-113372419D01*
X116719925Y-113372419D02*
X116624687Y-113420038D01*
X116624687Y-113420038D02*
X116577068Y-113467657D01*
X116577068Y-113467657D02*
X116529449Y-113562895D01*
X116529449Y-113562895D02*
X116481830Y-113753371D01*
X116481830Y-113753371D02*
X116481830Y-113991466D01*
X116481830Y-113991466D02*
X116529449Y-114181942D01*
X116529449Y-114181942D02*
X116577068Y-114277180D01*
X116577068Y-114277180D02*
X116624687Y-114324800D01*
X116624687Y-114324800D02*
X116719925Y-114372419D01*
X116719925Y-114372419D02*
X116815163Y-114372419D01*
X116815163Y-114372419D02*
X116910401Y-114324800D01*
X116910401Y-114324800D02*
X116958020Y-114277180D01*
X116958020Y-114277180D02*
X117005639Y-114181942D01*
X117005639Y-114181942D02*
X117053258Y-113991466D01*
X117053258Y-113991466D02*
X117053258Y-113753371D01*
X117053258Y-113753371D02*
X117005639Y-113562895D01*
X117005639Y-113562895D02*
X116958020Y-113467657D01*
X116958020Y-113467657D02*
X116910401Y-113420038D01*
X116910401Y-113420038D02*
X116815163Y-113372419D01*
X114719925Y-114372419D02*
X115053258Y-113896228D01*
X115291353Y-114372419D02*
X115291353Y-113372419D01*
X115291353Y-113372419D02*
X114910401Y-113372419D01*
X114910401Y-113372419D02*
X114815163Y-113420038D01*
X114815163Y-113420038D02*
X114767544Y-113467657D01*
X114767544Y-113467657D02*
X114719925Y-113562895D01*
X114719925Y-113562895D02*
X114719925Y-113705752D01*
X114719925Y-113705752D02*
X114767544Y-113800990D01*
X114767544Y-113800990D02*
X114815163Y-113848609D01*
X114815163Y-113848609D02*
X114910401Y-113896228D01*
X114910401Y-113896228D02*
X115291353Y-113896228D01*
X114291353Y-113848609D02*
X113958020Y-113848609D01*
X113815163Y-114372419D02*
X114291353Y-114372419D01*
X114291353Y-114372419D02*
X114291353Y-113372419D01*
X114291353Y-113372419D02*
X113815163Y-113372419D01*
X113529448Y-113372419D02*
X113196115Y-114372419D01*
X113196115Y-114372419D02*
X112862782Y-113372419D01*
X112529448Y-113991466D02*
X111767544Y-113991466D01*
X111338972Y-114086704D02*
X110862782Y-114086704D01*
X111434210Y-114372419D02*
X111100877Y-113372419D01*
X111100877Y-113372419D02*
X110767544Y-114372419D01*
X126066669Y-120957120D02*
X126066669Y-120157120D01*
X126066669Y-120157120D02*
X125761907Y-120157120D01*
X125761907Y-120157120D02*
X125685717Y-120195215D01*
X125685717Y-120195215D02*
X125647622Y-120233310D01*
X125647622Y-120233310D02*
X125609526Y-120309501D01*
X125609526Y-120309501D02*
X125609526Y-120423786D01*
X125609526Y-120423786D02*
X125647622Y-120499977D01*
X125647622Y-120499977D02*
X125685717Y-120538072D01*
X125685717Y-120538072D02*
X125761907Y-120576167D01*
X125761907Y-120576167D02*
X126066669Y-120576167D01*
X125266669Y-120957120D02*
X125266669Y-120423786D01*
X125266669Y-120576167D02*
X125228574Y-120499977D01*
X125228574Y-120499977D02*
X125190479Y-120461882D01*
X125190479Y-120461882D02*
X125114288Y-120423786D01*
X125114288Y-120423786D02*
X125038098Y-120423786D01*
X124657146Y-120957120D02*
X124733336Y-120919025D01*
X124733336Y-120919025D02*
X124771431Y-120880929D01*
X124771431Y-120880929D02*
X124809527Y-120804739D01*
X124809527Y-120804739D02*
X124809527Y-120576167D01*
X124809527Y-120576167D02*
X124771431Y-120499977D01*
X124771431Y-120499977D02*
X124733336Y-120461882D01*
X124733336Y-120461882D02*
X124657146Y-120423786D01*
X124657146Y-120423786D02*
X124542860Y-120423786D01*
X124542860Y-120423786D02*
X124466669Y-120461882D01*
X124466669Y-120461882D02*
X124428574Y-120499977D01*
X124428574Y-120499977D02*
X124390479Y-120576167D01*
X124390479Y-120576167D02*
X124390479Y-120804739D01*
X124390479Y-120804739D02*
X124428574Y-120880929D01*
X124428574Y-120880929D02*
X124466669Y-120919025D01*
X124466669Y-120919025D02*
X124542860Y-120957120D01*
X124542860Y-120957120D02*
X124657146Y-120957120D01*
X123704764Y-120423786D02*
X123704764Y-120957120D01*
X124047621Y-120423786D02*
X124047621Y-120842834D01*
X124047621Y-120842834D02*
X124009526Y-120919025D01*
X124009526Y-120919025D02*
X123933336Y-120957120D01*
X123933336Y-120957120D02*
X123819050Y-120957120D01*
X123819050Y-120957120D02*
X123742859Y-120919025D01*
X123742859Y-120919025D02*
X123704764Y-120880929D01*
X122980954Y-120957120D02*
X122980954Y-120157120D01*
X122980954Y-120919025D02*
X123057145Y-120957120D01*
X123057145Y-120957120D02*
X123209526Y-120957120D01*
X123209526Y-120957120D02*
X123285716Y-120919025D01*
X123285716Y-120919025D02*
X123323811Y-120880929D01*
X123323811Y-120880929D02*
X123361907Y-120804739D01*
X123361907Y-120804739D02*
X123361907Y-120576167D01*
X123361907Y-120576167D02*
X123323811Y-120499977D01*
X123323811Y-120499977D02*
X123285716Y-120461882D01*
X123285716Y-120461882D02*
X123209526Y-120423786D01*
X123209526Y-120423786D02*
X123057145Y-120423786D01*
X123057145Y-120423786D02*
X122980954Y-120461882D01*
X122485716Y-120957120D02*
X122561906Y-120919025D01*
X122561906Y-120919025D02*
X122600001Y-120842834D01*
X122600001Y-120842834D02*
X122600001Y-120157120D01*
X122257144Y-120423786D02*
X122066668Y-120957120D01*
X121876191Y-120423786D02*
X122066668Y-120957120D01*
X122066668Y-120957120D02*
X122142858Y-121147596D01*
X122142858Y-121147596D02*
X122180953Y-121185691D01*
X122180953Y-121185691D02*
X122257144Y-121223786D01*
X120961905Y-120957120D02*
X120961905Y-120157120D01*
X120961905Y-120157120D02*
X120771429Y-120157120D01*
X120771429Y-120157120D02*
X120657143Y-120195215D01*
X120657143Y-120195215D02*
X120580953Y-120271405D01*
X120580953Y-120271405D02*
X120542858Y-120347596D01*
X120542858Y-120347596D02*
X120504762Y-120499977D01*
X120504762Y-120499977D02*
X120504762Y-120614263D01*
X120504762Y-120614263D02*
X120542858Y-120766644D01*
X120542858Y-120766644D02*
X120580953Y-120842834D01*
X120580953Y-120842834D02*
X120657143Y-120919025D01*
X120657143Y-120919025D02*
X120771429Y-120957120D01*
X120771429Y-120957120D02*
X120961905Y-120957120D01*
X119857143Y-120919025D02*
X119933334Y-120957120D01*
X119933334Y-120957120D02*
X120085715Y-120957120D01*
X120085715Y-120957120D02*
X120161905Y-120919025D01*
X120161905Y-120919025D02*
X120200001Y-120842834D01*
X120200001Y-120842834D02*
X120200001Y-120538072D01*
X120200001Y-120538072D02*
X120161905Y-120461882D01*
X120161905Y-120461882D02*
X120085715Y-120423786D01*
X120085715Y-120423786D02*
X119933334Y-120423786D01*
X119933334Y-120423786D02*
X119857143Y-120461882D01*
X119857143Y-120461882D02*
X119819048Y-120538072D01*
X119819048Y-120538072D02*
X119819048Y-120614263D01*
X119819048Y-120614263D02*
X120200001Y-120690453D01*
X119514287Y-120919025D02*
X119438096Y-120957120D01*
X119438096Y-120957120D02*
X119285715Y-120957120D01*
X119285715Y-120957120D02*
X119209525Y-120919025D01*
X119209525Y-120919025D02*
X119171429Y-120842834D01*
X119171429Y-120842834D02*
X119171429Y-120804739D01*
X119171429Y-120804739D02*
X119209525Y-120728548D01*
X119209525Y-120728548D02*
X119285715Y-120690453D01*
X119285715Y-120690453D02*
X119400001Y-120690453D01*
X119400001Y-120690453D02*
X119476191Y-120652358D01*
X119476191Y-120652358D02*
X119514287Y-120576167D01*
X119514287Y-120576167D02*
X119514287Y-120538072D01*
X119514287Y-120538072D02*
X119476191Y-120461882D01*
X119476191Y-120461882D02*
X119400001Y-120423786D01*
X119400001Y-120423786D02*
X119285715Y-120423786D01*
X119285715Y-120423786D02*
X119209525Y-120461882D01*
X118828572Y-120957120D02*
X118828572Y-120423786D01*
X118828572Y-120157120D02*
X118866668Y-120195215D01*
X118866668Y-120195215D02*
X118828572Y-120233310D01*
X118828572Y-120233310D02*
X118790477Y-120195215D01*
X118790477Y-120195215D02*
X118828572Y-120157120D01*
X118828572Y-120157120D02*
X118828572Y-120233310D01*
X118104763Y-120423786D02*
X118104763Y-121071405D01*
X118104763Y-121071405D02*
X118142858Y-121147596D01*
X118142858Y-121147596D02*
X118180954Y-121185691D01*
X118180954Y-121185691D02*
X118257144Y-121223786D01*
X118257144Y-121223786D02*
X118371430Y-121223786D01*
X118371430Y-121223786D02*
X118447620Y-121185691D01*
X118104763Y-120919025D02*
X118180954Y-120957120D01*
X118180954Y-120957120D02*
X118333335Y-120957120D01*
X118333335Y-120957120D02*
X118409525Y-120919025D01*
X118409525Y-120919025D02*
X118447620Y-120880929D01*
X118447620Y-120880929D02*
X118485716Y-120804739D01*
X118485716Y-120804739D02*
X118485716Y-120576167D01*
X118485716Y-120576167D02*
X118447620Y-120499977D01*
X118447620Y-120499977D02*
X118409525Y-120461882D01*
X118409525Y-120461882D02*
X118333335Y-120423786D01*
X118333335Y-120423786D02*
X118180954Y-120423786D01*
X118180954Y-120423786D02*
X118104763Y-120461882D01*
X117723810Y-120423786D02*
X117723810Y-120957120D01*
X117723810Y-120499977D02*
X117685715Y-120461882D01*
X117685715Y-120461882D02*
X117609525Y-120423786D01*
X117609525Y-120423786D02*
X117495239Y-120423786D01*
X117495239Y-120423786D02*
X117419048Y-120461882D01*
X117419048Y-120461882D02*
X117380953Y-120538072D01*
X117380953Y-120538072D02*
X117380953Y-120957120D01*
X116695238Y-120919025D02*
X116771429Y-120957120D01*
X116771429Y-120957120D02*
X116923810Y-120957120D01*
X116923810Y-120957120D02*
X117000000Y-120919025D01*
X117000000Y-120919025D02*
X117038096Y-120842834D01*
X117038096Y-120842834D02*
X117038096Y-120538072D01*
X117038096Y-120538072D02*
X117000000Y-120461882D01*
X117000000Y-120461882D02*
X116923810Y-120423786D01*
X116923810Y-120423786D02*
X116771429Y-120423786D01*
X116771429Y-120423786D02*
X116695238Y-120461882D01*
X116695238Y-120461882D02*
X116657143Y-120538072D01*
X116657143Y-120538072D02*
X116657143Y-120614263D01*
X116657143Y-120614263D02*
X117038096Y-120690453D01*
X115971429Y-120957120D02*
X115971429Y-120157120D01*
X115971429Y-120919025D02*
X116047620Y-120957120D01*
X116047620Y-120957120D02*
X116200001Y-120957120D01*
X116200001Y-120957120D02*
X116276191Y-120919025D01*
X116276191Y-120919025D02*
X116314286Y-120880929D01*
X116314286Y-120880929D02*
X116352382Y-120804739D01*
X116352382Y-120804739D02*
X116352382Y-120576167D01*
X116352382Y-120576167D02*
X116314286Y-120499977D01*
X116314286Y-120499977D02*
X116276191Y-120461882D01*
X116276191Y-120461882D02*
X116200001Y-120423786D01*
X116200001Y-120423786D02*
X116047620Y-120423786D01*
X116047620Y-120423786D02*
X115971429Y-120461882D01*
X114638095Y-120957120D02*
X114638095Y-120538072D01*
X114638095Y-120538072D02*
X114676190Y-120461882D01*
X114676190Y-120461882D02*
X114752381Y-120423786D01*
X114752381Y-120423786D02*
X114904762Y-120423786D01*
X114904762Y-120423786D02*
X114980952Y-120461882D01*
X114638095Y-120919025D02*
X114714286Y-120957120D01*
X114714286Y-120957120D02*
X114904762Y-120957120D01*
X114904762Y-120957120D02*
X114980952Y-120919025D01*
X114980952Y-120919025D02*
X115019048Y-120842834D01*
X115019048Y-120842834D02*
X115019048Y-120766644D01*
X115019048Y-120766644D02*
X114980952Y-120690453D01*
X114980952Y-120690453D02*
X114904762Y-120652358D01*
X114904762Y-120652358D02*
X114714286Y-120652358D01*
X114714286Y-120652358D02*
X114638095Y-120614263D01*
X114257142Y-120423786D02*
X114257142Y-120957120D01*
X114257142Y-120499977D02*
X114219047Y-120461882D01*
X114219047Y-120461882D02*
X114142857Y-120423786D01*
X114142857Y-120423786D02*
X114028571Y-120423786D01*
X114028571Y-120423786D02*
X113952380Y-120461882D01*
X113952380Y-120461882D02*
X113914285Y-120538072D01*
X113914285Y-120538072D02*
X113914285Y-120957120D01*
X113190475Y-120957120D02*
X113190475Y-120157120D01*
X113190475Y-120919025D02*
X113266666Y-120957120D01*
X113266666Y-120957120D02*
X113419047Y-120957120D01*
X113419047Y-120957120D02*
X113495237Y-120919025D01*
X113495237Y-120919025D02*
X113533332Y-120880929D01*
X113533332Y-120880929D02*
X113571428Y-120804739D01*
X113571428Y-120804739D02*
X113571428Y-120576167D01*
X113571428Y-120576167D02*
X113533332Y-120499977D01*
X113533332Y-120499977D02*
X113495237Y-120461882D01*
X113495237Y-120461882D02*
X113419047Y-120423786D01*
X113419047Y-120423786D02*
X113266666Y-120423786D01*
X113266666Y-120423786D02*
X113190475Y-120461882D01*
X112199998Y-120957120D02*
X112199998Y-120157120D01*
X112199998Y-120157120D02*
X111933332Y-120728548D01*
X111933332Y-120728548D02*
X111666665Y-120157120D01*
X111666665Y-120157120D02*
X111666665Y-120957120D01*
X110942855Y-120957120D02*
X110942855Y-120538072D01*
X110942855Y-120538072D02*
X110980950Y-120461882D01*
X110980950Y-120461882D02*
X111057141Y-120423786D01*
X111057141Y-120423786D02*
X111209522Y-120423786D01*
X111209522Y-120423786D02*
X111285712Y-120461882D01*
X110942855Y-120919025D02*
X111019046Y-120957120D01*
X111019046Y-120957120D02*
X111209522Y-120957120D01*
X111209522Y-120957120D02*
X111285712Y-120919025D01*
X111285712Y-120919025D02*
X111323808Y-120842834D01*
X111323808Y-120842834D02*
X111323808Y-120766644D01*
X111323808Y-120766644D02*
X111285712Y-120690453D01*
X111285712Y-120690453D02*
X111209522Y-120652358D01*
X111209522Y-120652358D02*
X111019046Y-120652358D01*
X111019046Y-120652358D02*
X110942855Y-120614263D01*
X110561902Y-120423786D02*
X110561902Y-120957120D01*
X110561902Y-120499977D02*
X110523807Y-120461882D01*
X110523807Y-120461882D02*
X110447617Y-120423786D01*
X110447617Y-120423786D02*
X110333331Y-120423786D01*
X110333331Y-120423786D02*
X110257140Y-120461882D01*
X110257140Y-120461882D02*
X110219045Y-120538072D01*
X110219045Y-120538072D02*
X110219045Y-120957120D01*
X109495235Y-120423786D02*
X109495235Y-120957120D01*
X109838092Y-120423786D02*
X109838092Y-120842834D01*
X109838092Y-120842834D02*
X109799997Y-120919025D01*
X109799997Y-120919025D02*
X109723807Y-120957120D01*
X109723807Y-120957120D02*
X109609521Y-120957120D01*
X109609521Y-120957120D02*
X109533330Y-120919025D01*
X109533330Y-120919025D02*
X109495235Y-120880929D01*
X109228568Y-120423786D02*
X108923806Y-120423786D01*
X109114282Y-120957120D02*
X109114282Y-120271405D01*
X109114282Y-120271405D02*
X109076187Y-120195215D01*
X109076187Y-120195215D02*
X108999997Y-120157120D01*
X108999997Y-120157120D02*
X108923806Y-120157120D01*
X108314282Y-120957120D02*
X108314282Y-120538072D01*
X108314282Y-120538072D02*
X108352377Y-120461882D01*
X108352377Y-120461882D02*
X108428568Y-120423786D01*
X108428568Y-120423786D02*
X108580949Y-120423786D01*
X108580949Y-120423786D02*
X108657139Y-120461882D01*
X108314282Y-120919025D02*
X108390473Y-120957120D01*
X108390473Y-120957120D02*
X108580949Y-120957120D01*
X108580949Y-120957120D02*
X108657139Y-120919025D01*
X108657139Y-120919025D02*
X108695235Y-120842834D01*
X108695235Y-120842834D02*
X108695235Y-120766644D01*
X108695235Y-120766644D02*
X108657139Y-120690453D01*
X108657139Y-120690453D02*
X108580949Y-120652358D01*
X108580949Y-120652358D02*
X108390473Y-120652358D01*
X108390473Y-120652358D02*
X108314282Y-120614263D01*
X107590472Y-120919025D02*
X107666663Y-120957120D01*
X107666663Y-120957120D02*
X107819044Y-120957120D01*
X107819044Y-120957120D02*
X107895234Y-120919025D01*
X107895234Y-120919025D02*
X107933329Y-120880929D01*
X107933329Y-120880929D02*
X107971425Y-120804739D01*
X107971425Y-120804739D02*
X107971425Y-120576167D01*
X107971425Y-120576167D02*
X107933329Y-120499977D01*
X107933329Y-120499977D02*
X107895234Y-120461882D01*
X107895234Y-120461882D02*
X107819044Y-120423786D01*
X107819044Y-120423786D02*
X107666663Y-120423786D01*
X107666663Y-120423786D02*
X107590472Y-120461882D01*
X107361901Y-120423786D02*
X107057139Y-120423786D01*
X107247615Y-120157120D02*
X107247615Y-120842834D01*
X107247615Y-120842834D02*
X107209520Y-120919025D01*
X107209520Y-120919025D02*
X107133330Y-120957120D01*
X107133330Y-120957120D02*
X107057139Y-120957120D01*
X106447615Y-120423786D02*
X106447615Y-120957120D01*
X106790472Y-120423786D02*
X106790472Y-120842834D01*
X106790472Y-120842834D02*
X106752377Y-120919025D01*
X106752377Y-120919025D02*
X106676187Y-120957120D01*
X106676187Y-120957120D02*
X106561901Y-120957120D01*
X106561901Y-120957120D02*
X106485710Y-120919025D01*
X106485710Y-120919025D02*
X106447615Y-120880929D01*
X106066662Y-120957120D02*
X106066662Y-120423786D01*
X106066662Y-120576167D02*
X106028567Y-120499977D01*
X106028567Y-120499977D02*
X105990472Y-120461882D01*
X105990472Y-120461882D02*
X105914281Y-120423786D01*
X105914281Y-120423786D02*
X105838091Y-120423786D01*
X105266662Y-120919025D02*
X105342853Y-120957120D01*
X105342853Y-120957120D02*
X105495234Y-120957120D01*
X105495234Y-120957120D02*
X105571424Y-120919025D01*
X105571424Y-120919025D02*
X105609520Y-120842834D01*
X105609520Y-120842834D02*
X105609520Y-120538072D01*
X105609520Y-120538072D02*
X105571424Y-120461882D01*
X105571424Y-120461882D02*
X105495234Y-120423786D01*
X105495234Y-120423786D02*
X105342853Y-120423786D01*
X105342853Y-120423786D02*
X105266662Y-120461882D01*
X105266662Y-120461882D02*
X105228567Y-120538072D01*
X105228567Y-120538072D02*
X105228567Y-120614263D01*
X105228567Y-120614263D02*
X105609520Y-120690453D01*
X104542853Y-120957120D02*
X104542853Y-120157120D01*
X104542853Y-120919025D02*
X104619044Y-120957120D01*
X104619044Y-120957120D02*
X104771425Y-120957120D01*
X104771425Y-120957120D02*
X104847615Y-120919025D01*
X104847615Y-120919025D02*
X104885710Y-120880929D01*
X104885710Y-120880929D02*
X104923806Y-120804739D01*
X104923806Y-120804739D02*
X104923806Y-120576167D01*
X104923806Y-120576167D02*
X104885710Y-120499977D01*
X104885710Y-120499977D02*
X104847615Y-120461882D01*
X104847615Y-120461882D02*
X104771425Y-120423786D01*
X104771425Y-120423786D02*
X104619044Y-120423786D01*
X104619044Y-120423786D02*
X104542853Y-120461882D01*
X121399999Y-122245075D02*
X121399999Y-121711741D01*
X121399999Y-121445075D02*
X121438095Y-121483170D01*
X121438095Y-121483170D02*
X121399999Y-121521265D01*
X121399999Y-121521265D02*
X121361904Y-121483170D01*
X121361904Y-121483170D02*
X121399999Y-121445075D01*
X121399999Y-121445075D02*
X121399999Y-121521265D01*
X121019047Y-121711741D02*
X121019047Y-122245075D01*
X121019047Y-121787932D02*
X120980952Y-121749837D01*
X120980952Y-121749837D02*
X120904762Y-121711741D01*
X120904762Y-121711741D02*
X120790476Y-121711741D01*
X120790476Y-121711741D02*
X120714285Y-121749837D01*
X120714285Y-121749837D02*
X120676190Y-121826027D01*
X120676190Y-121826027D02*
X120676190Y-122245075D01*
X119685713Y-121445075D02*
X119685713Y-122092694D01*
X119685713Y-122092694D02*
X119647618Y-122168884D01*
X119647618Y-122168884D02*
X119609523Y-122206980D01*
X119609523Y-122206980D02*
X119533332Y-122245075D01*
X119533332Y-122245075D02*
X119380951Y-122245075D01*
X119380951Y-122245075D02*
X119304761Y-122206980D01*
X119304761Y-122206980D02*
X119266666Y-122168884D01*
X119266666Y-122168884D02*
X119228570Y-122092694D01*
X119228570Y-122092694D02*
X119228570Y-121445075D01*
X118847618Y-122245075D02*
X118847618Y-121445075D01*
X118771428Y-121940313D02*
X118542856Y-122245075D01*
X118542856Y-121711741D02*
X118847618Y-122016503D01*
X118199999Y-122245075D02*
X118199999Y-121711741D01*
X118199999Y-121864122D02*
X118161904Y-121787932D01*
X118161904Y-121787932D02*
X118123809Y-121749837D01*
X118123809Y-121749837D02*
X118047618Y-121711741D01*
X118047618Y-121711741D02*
X117971428Y-121711741D01*
X117361904Y-122245075D02*
X117361904Y-121826027D01*
X117361904Y-121826027D02*
X117399999Y-121749837D01*
X117399999Y-121749837D02*
X117476190Y-121711741D01*
X117476190Y-121711741D02*
X117628571Y-121711741D01*
X117628571Y-121711741D02*
X117704761Y-121749837D01*
X117361904Y-122206980D02*
X117438095Y-122245075D01*
X117438095Y-122245075D02*
X117628571Y-122245075D01*
X117628571Y-122245075D02*
X117704761Y-122206980D01*
X117704761Y-122206980D02*
X117742857Y-122130789D01*
X117742857Y-122130789D02*
X117742857Y-122054599D01*
X117742857Y-122054599D02*
X117704761Y-121978408D01*
X117704761Y-121978408D02*
X117628571Y-121940313D01*
X117628571Y-121940313D02*
X117438095Y-121940313D01*
X117438095Y-121940313D02*
X117361904Y-121902218D01*
X116980951Y-122245075D02*
X116980951Y-121711741D01*
X116980951Y-121445075D02*
X117019047Y-121483170D01*
X117019047Y-121483170D02*
X116980951Y-121521265D01*
X116980951Y-121521265D02*
X116942856Y-121483170D01*
X116942856Y-121483170D02*
X116980951Y-121445075D01*
X116980951Y-121445075D02*
X116980951Y-121521265D01*
X116599999Y-121711741D02*
X116599999Y-122245075D01*
X116599999Y-121787932D02*
X116561904Y-121749837D01*
X116561904Y-121749837D02*
X116485714Y-121711741D01*
X116485714Y-121711741D02*
X116371428Y-121711741D01*
X116371428Y-121711741D02*
X116295237Y-121749837D01*
X116295237Y-121749837D02*
X116257142Y-121826027D01*
X116257142Y-121826027D02*
X116257142Y-122245075D01*
X115571427Y-122206980D02*
X115647618Y-122245075D01*
X115647618Y-122245075D02*
X115799999Y-122245075D01*
X115799999Y-122245075D02*
X115876189Y-122206980D01*
X115876189Y-122206980D02*
X115914285Y-122130789D01*
X115914285Y-122130789D02*
X115914285Y-121826027D01*
X115914285Y-121826027D02*
X115876189Y-121749837D01*
X115876189Y-121749837D02*
X115799999Y-121711741D01*
X115799999Y-121711741D02*
X115647618Y-121711741D01*
X115647618Y-121711741D02*
X115571427Y-121749837D01*
X115571427Y-121749837D02*
X115533332Y-121826027D01*
X115533332Y-121826027D02*
X115533332Y-121902218D01*
X115533332Y-121902218D02*
X115914285Y-121978408D01*
X114238094Y-121711741D02*
X114238094Y-122245075D01*
X114580951Y-121711741D02*
X114580951Y-122130789D01*
X114580951Y-122130789D02*
X114542856Y-122206980D01*
X114542856Y-122206980D02*
X114466666Y-122245075D01*
X114466666Y-122245075D02*
X114352380Y-122245075D01*
X114352380Y-122245075D02*
X114276189Y-122206980D01*
X114276189Y-122206980D02*
X114238094Y-122168884D01*
X113857141Y-121711741D02*
X113857141Y-122245075D01*
X113857141Y-121787932D02*
X113819046Y-121749837D01*
X113819046Y-121749837D02*
X113742856Y-121711741D01*
X113742856Y-121711741D02*
X113628570Y-121711741D01*
X113628570Y-121711741D02*
X113552379Y-121749837D01*
X113552379Y-121749837D02*
X113514284Y-121826027D01*
X113514284Y-121826027D02*
X113514284Y-122245075D01*
X112790474Y-122245075D02*
X112790474Y-121445075D01*
X112790474Y-122206980D02*
X112866665Y-122245075D01*
X112866665Y-122245075D02*
X113019046Y-122245075D01*
X113019046Y-122245075D02*
X113095236Y-122206980D01*
X113095236Y-122206980D02*
X113133331Y-122168884D01*
X113133331Y-122168884D02*
X113171427Y-122092694D01*
X113171427Y-122092694D02*
X113171427Y-121864122D01*
X113171427Y-121864122D02*
X113133331Y-121787932D01*
X113133331Y-121787932D02*
X113095236Y-121749837D01*
X113095236Y-121749837D02*
X113019046Y-121711741D01*
X113019046Y-121711741D02*
X112866665Y-121711741D01*
X112866665Y-121711741D02*
X112790474Y-121749837D01*
X112104759Y-122206980D02*
X112180950Y-122245075D01*
X112180950Y-122245075D02*
X112333331Y-122245075D01*
X112333331Y-122245075D02*
X112409521Y-122206980D01*
X112409521Y-122206980D02*
X112447617Y-122130789D01*
X112447617Y-122130789D02*
X112447617Y-121826027D01*
X112447617Y-121826027D02*
X112409521Y-121749837D01*
X112409521Y-121749837D02*
X112333331Y-121711741D01*
X112333331Y-121711741D02*
X112180950Y-121711741D01*
X112180950Y-121711741D02*
X112104759Y-121749837D01*
X112104759Y-121749837D02*
X112066664Y-121826027D01*
X112066664Y-121826027D02*
X112066664Y-121902218D01*
X112066664Y-121902218D02*
X112447617Y-121978408D01*
X111723807Y-122245075D02*
X111723807Y-121711741D01*
X111723807Y-121864122D02*
X111685712Y-121787932D01*
X111685712Y-121787932D02*
X111647617Y-121749837D01*
X111647617Y-121749837D02*
X111571426Y-121711741D01*
X111571426Y-121711741D02*
X111495236Y-121711741D01*
X110733331Y-121711741D02*
X110428569Y-121711741D01*
X110619045Y-122245075D02*
X110619045Y-121559360D01*
X110619045Y-121559360D02*
X110580950Y-121483170D01*
X110580950Y-121483170D02*
X110504760Y-121445075D01*
X110504760Y-121445075D02*
X110428569Y-121445075D01*
X110161902Y-122245075D02*
X110161902Y-121711741D01*
X110161902Y-121445075D02*
X110199998Y-121483170D01*
X110199998Y-121483170D02*
X110161902Y-121521265D01*
X110161902Y-121521265D02*
X110123807Y-121483170D01*
X110123807Y-121483170D02*
X110161902Y-121445075D01*
X110161902Y-121445075D02*
X110161902Y-121521265D01*
X109780950Y-122245075D02*
X109780950Y-121711741D01*
X109780950Y-121864122D02*
X109742855Y-121787932D01*
X109742855Y-121787932D02*
X109704760Y-121749837D01*
X109704760Y-121749837D02*
X109628569Y-121711741D01*
X109628569Y-121711741D02*
X109552379Y-121711741D01*
X108980950Y-122206980D02*
X109057141Y-122245075D01*
X109057141Y-122245075D02*
X109209522Y-122245075D01*
X109209522Y-122245075D02*
X109285712Y-122206980D01*
X109285712Y-122206980D02*
X109323808Y-122130789D01*
X109323808Y-122130789D02*
X109323808Y-121826027D01*
X109323808Y-121826027D02*
X109285712Y-121749837D01*
X109285712Y-121749837D02*
X109209522Y-121711741D01*
X109209522Y-121711741D02*
X109057141Y-121711741D01*
X109057141Y-121711741D02*
X108980950Y-121749837D01*
X108980950Y-121749837D02*
X108942855Y-121826027D01*
X108942855Y-121826027D02*
X108942855Y-121902218D01*
X108942855Y-121902218D02*
X109323808Y-121978408D01*
X108599998Y-122168884D02*
X108561903Y-122206980D01*
X108561903Y-122206980D02*
X108599998Y-122245075D01*
X108599998Y-122245075D02*
X108638094Y-122206980D01*
X108638094Y-122206980D02*
X108599998Y-122168884D01*
X108599998Y-122168884D02*
X108599998Y-122245075D01*
X108599998Y-121940313D02*
X108638094Y-121483170D01*
X108638094Y-121483170D02*
X108599998Y-121445075D01*
X108599998Y-121445075D02*
X108561903Y-121483170D01*
X108561903Y-121483170D02*
X108599998Y-121940313D01*
X108599998Y-121940313D02*
X108599998Y-121445075D01*
X123590476Y-127320704D02*
X123628572Y-127358800D01*
X123628572Y-127358800D02*
X123742857Y-127396895D01*
X123742857Y-127396895D02*
X123819048Y-127396895D01*
X123819048Y-127396895D02*
X123933334Y-127358800D01*
X123933334Y-127358800D02*
X124009524Y-127282609D01*
X124009524Y-127282609D02*
X124047619Y-127206419D01*
X124047619Y-127206419D02*
X124085715Y-127054038D01*
X124085715Y-127054038D02*
X124085715Y-126939752D01*
X124085715Y-126939752D02*
X124047619Y-126787371D01*
X124047619Y-126787371D02*
X124009524Y-126711180D01*
X124009524Y-126711180D02*
X123933334Y-126634990D01*
X123933334Y-126634990D02*
X123819048Y-126596895D01*
X123819048Y-126596895D02*
X123742857Y-126596895D01*
X123742857Y-126596895D02*
X123628572Y-126634990D01*
X123628572Y-126634990D02*
X123590476Y-126673085D01*
X122942857Y-127396895D02*
X122942857Y-126863561D01*
X122942857Y-126863561D02*
X123057143Y-126863561D01*
X123057143Y-126863561D02*
X123133334Y-126901657D01*
X123133334Y-126901657D02*
X123171429Y-126977847D01*
X123171429Y-126977847D02*
X123209524Y-127282609D01*
X123209524Y-127282609D02*
X123247619Y-127358800D01*
X123247619Y-127358800D02*
X123323810Y-127396895D01*
X122219048Y-127396895D02*
X122219048Y-126977847D01*
X122219048Y-126977847D02*
X122257143Y-126901657D01*
X122257143Y-126901657D02*
X122333334Y-126863561D01*
X122333334Y-126863561D02*
X122485715Y-126863561D01*
X122485715Y-126863561D02*
X122561905Y-126901657D01*
X122219048Y-127358800D02*
X122295239Y-127396895D01*
X122295239Y-127396895D02*
X122485715Y-127396895D01*
X122485715Y-127396895D02*
X122561905Y-127358800D01*
X122561905Y-127358800D02*
X122600001Y-127282609D01*
X122600001Y-127282609D02*
X122600001Y-127206419D01*
X122600001Y-127206419D02*
X122561905Y-127130228D01*
X122561905Y-127130228D02*
X122485715Y-127092133D01*
X122485715Y-127092133D02*
X122295239Y-127092133D01*
X122295239Y-127092133D02*
X122219048Y-127054038D01*
X121647619Y-127130228D02*
X121533333Y-127168323D01*
X121533333Y-127168323D02*
X121495238Y-127244514D01*
X121495238Y-127244514D02*
X121495238Y-127282609D01*
X121495238Y-127282609D02*
X121533333Y-127358800D01*
X121533333Y-127358800D02*
X121609524Y-127396895D01*
X121609524Y-127396895D02*
X121838095Y-127396895D01*
X121838095Y-127396895D02*
X121838095Y-126863561D01*
X121838095Y-126863561D02*
X121647619Y-126863561D01*
X121647619Y-126863561D02*
X121571429Y-126901657D01*
X121571429Y-126901657D02*
X121533333Y-126977847D01*
X121533333Y-126977847D02*
X121533333Y-127015942D01*
X121533333Y-127015942D02*
X121571429Y-127092133D01*
X121571429Y-127092133D02*
X121647619Y-127130228D01*
X121647619Y-127130228D02*
X121838095Y-127130228D01*
X120809524Y-127396895D02*
X120809524Y-126977847D01*
X120809524Y-126977847D02*
X120847619Y-126901657D01*
X120847619Y-126901657D02*
X120923810Y-126863561D01*
X120923810Y-126863561D02*
X121076191Y-126863561D01*
X121076191Y-126863561D02*
X121152381Y-126901657D01*
X120809524Y-127358800D02*
X120885715Y-127396895D01*
X120885715Y-127396895D02*
X121076191Y-127396895D01*
X121076191Y-127396895D02*
X121152381Y-127358800D01*
X121152381Y-127358800D02*
X121190477Y-127282609D01*
X121190477Y-127282609D02*
X121190477Y-127206419D01*
X121190477Y-127206419D02*
X121152381Y-127130228D01*
X121152381Y-127130228D02*
X121076191Y-127092133D01*
X121076191Y-127092133D02*
X120885715Y-127092133D01*
X120885715Y-127092133D02*
X120809524Y-127054038D01*
X119857143Y-126596895D02*
X119590476Y-127130228D01*
X119323809Y-126596895D02*
X119666666Y-127282609D01*
X119666666Y-127282609D02*
X119742857Y-127358800D01*
X119742857Y-127358800D02*
X119819047Y-127396895D01*
X119819047Y-127396895D02*
X119857143Y-127396895D01*
X119057142Y-126863561D02*
X119057142Y-127396895D01*
X118980952Y-127092133D02*
X118752380Y-127396895D01*
X118752380Y-126863561D02*
X119057142Y-127168323D01*
X118409523Y-126863561D02*
X118409523Y-127663561D01*
X118409523Y-126901657D02*
X118333333Y-126863561D01*
X118333333Y-126863561D02*
X118180952Y-126863561D01*
X118180952Y-126863561D02*
X118104761Y-126901657D01*
X118104761Y-126901657D02*
X118066666Y-126939752D01*
X118066666Y-126939752D02*
X118028571Y-127015942D01*
X118028571Y-127015942D02*
X118028571Y-127244514D01*
X118028571Y-127244514D02*
X118066666Y-127320704D01*
X118066666Y-127320704D02*
X118104761Y-127358800D01*
X118104761Y-127358800D02*
X118180952Y-127396895D01*
X118180952Y-127396895D02*
X118333333Y-127396895D01*
X118333333Y-127396895D02*
X118409523Y-127358800D01*
X117342856Y-127396895D02*
X117342856Y-126977847D01*
X117342856Y-126977847D02*
X117380951Y-126901657D01*
X117380951Y-126901657D02*
X117457142Y-126863561D01*
X117457142Y-126863561D02*
X117609523Y-126863561D01*
X117609523Y-126863561D02*
X117685713Y-126901657D01*
X117342856Y-127358800D02*
X117419047Y-127396895D01*
X117419047Y-127396895D02*
X117609523Y-127396895D01*
X117609523Y-127396895D02*
X117685713Y-127358800D01*
X117685713Y-127358800D02*
X117723809Y-127282609D01*
X117723809Y-127282609D02*
X117723809Y-127206419D01*
X117723809Y-127206419D02*
X117685713Y-127130228D01*
X117685713Y-127130228D02*
X117609523Y-127092133D01*
X117609523Y-127092133D02*
X117419047Y-127092133D01*
X117419047Y-127092133D02*
X117342856Y-127054038D01*
X117076189Y-126596895D02*
X117038094Y-126634990D01*
X117038094Y-126634990D02*
X117076189Y-126673085D01*
X117076189Y-126673085D02*
X117114284Y-126634990D01*
X117114284Y-126634990D02*
X117076189Y-126596895D01*
X117076189Y-126596895D02*
X117076189Y-126673085D01*
X116771427Y-126596895D02*
X116733332Y-126634990D01*
X116733332Y-126634990D02*
X116771427Y-126673085D01*
X116771427Y-126673085D02*
X116809522Y-126634990D01*
X116809522Y-126634990D02*
X116771427Y-126596895D01*
X116771427Y-126596895D02*
X116771427Y-126673085D01*
X116923808Y-127396895D02*
X116923808Y-126863561D01*
X116504760Y-127130228D02*
X116161903Y-127130228D01*
X116504760Y-126863561D02*
X116504760Y-127396895D01*
X116161903Y-126863561D02*
X116161903Y-127396895D01*
X115780950Y-127396895D02*
X115780950Y-126863561D01*
X115780950Y-126596895D02*
X115819046Y-126634990D01*
X115819046Y-126634990D02*
X115780950Y-126673085D01*
X115780950Y-126673085D02*
X115742855Y-126634990D01*
X115742855Y-126634990D02*
X115780950Y-126596895D01*
X115780950Y-126596895D02*
X115780950Y-126673085D01*
X115399998Y-127320704D02*
X115361903Y-127358800D01*
X115361903Y-127358800D02*
X115399998Y-127396895D01*
X115399998Y-127396895D02*
X115438094Y-127358800D01*
X115438094Y-127358800D02*
X115399998Y-127320704D01*
X115399998Y-127320704D02*
X115399998Y-127396895D01*
X115399998Y-127092133D02*
X115438094Y-126634990D01*
X115438094Y-126634990D02*
X115399998Y-126596895D01*
X115399998Y-126596895D02*
X115361903Y-126634990D01*
X115361903Y-126634990D02*
X115399998Y-127092133D01*
X115399998Y-127092133D02*
X115399998Y-126596895D01*
X114409522Y-127396895D02*
X114409522Y-126596895D01*
X114409522Y-126596895D02*
X113990475Y-126596895D01*
X113419046Y-127358800D02*
X113495237Y-127396895D01*
X113495237Y-127396895D02*
X113647618Y-127396895D01*
X113647618Y-127396895D02*
X113723808Y-127358800D01*
X113723808Y-127358800D02*
X113761904Y-127282609D01*
X113761904Y-127282609D02*
X113761904Y-126977847D01*
X113761904Y-126977847D02*
X113723808Y-126901657D01*
X113723808Y-126901657D02*
X113647618Y-126863561D01*
X113647618Y-126863561D02*
X113495237Y-126863561D01*
X113495237Y-126863561D02*
X113419046Y-126901657D01*
X113419046Y-126901657D02*
X113380951Y-126977847D01*
X113380951Y-126977847D02*
X113380951Y-127054038D01*
X113380951Y-127054038D02*
X113761904Y-127130228D01*
X113038094Y-126863561D02*
X113038094Y-127663561D01*
X113038094Y-126901657D02*
X112961904Y-126863561D01*
X112961904Y-126863561D02*
X112809523Y-126863561D01*
X112809523Y-126863561D02*
X112733332Y-126901657D01*
X112733332Y-126901657D02*
X112695237Y-126939752D01*
X112695237Y-126939752D02*
X112657142Y-127015942D01*
X112657142Y-127015942D02*
X112657142Y-127244514D01*
X112657142Y-127244514D02*
X112695237Y-127320704D01*
X112695237Y-127320704D02*
X112733332Y-127358800D01*
X112733332Y-127358800D02*
X112809523Y-127396895D01*
X112809523Y-127396895D02*
X112961904Y-127396895D01*
X112961904Y-127396895D02*
X113038094Y-127358800D01*
X112199999Y-127396895D02*
X112276189Y-127358800D01*
X112276189Y-127358800D02*
X112314284Y-127320704D01*
X112314284Y-127320704D02*
X112352380Y-127244514D01*
X112352380Y-127244514D02*
X112352380Y-127015942D01*
X112352380Y-127015942D02*
X112314284Y-126939752D01*
X112314284Y-126939752D02*
X112276189Y-126901657D01*
X112276189Y-126901657D02*
X112199999Y-126863561D01*
X112199999Y-126863561D02*
X112085713Y-126863561D01*
X112085713Y-126863561D02*
X112009522Y-126901657D01*
X112009522Y-126901657D02*
X111971427Y-126939752D01*
X111971427Y-126939752D02*
X111933332Y-127015942D01*
X111933332Y-127015942D02*
X111933332Y-127244514D01*
X111933332Y-127244514D02*
X111971427Y-127320704D01*
X111971427Y-127320704D02*
X112009522Y-127358800D01*
X112009522Y-127358800D02*
X112085713Y-127396895D01*
X112085713Y-127396895D02*
X112199999Y-127396895D01*
X111438093Y-127168323D02*
X111628570Y-127396895D01*
X111285712Y-127396895D02*
X111285712Y-126863561D01*
X111285712Y-126863561D02*
X111514284Y-126863561D01*
X111514284Y-126863561D02*
X111590474Y-126901657D01*
X111590474Y-126901657D02*
X111628570Y-126977847D01*
X111628570Y-126977847D02*
X111628570Y-127054038D01*
X111628570Y-127054038D02*
X111590474Y-127130228D01*
X111590474Y-127130228D02*
X111514284Y-127168323D01*
X111514284Y-127168323D02*
X111285712Y-127168323D01*
X110904760Y-127396895D02*
X110904760Y-126863561D01*
X110904760Y-126863561D02*
X110676189Y-127282609D01*
X110676189Y-127282609D02*
X110447617Y-126863561D01*
X110447617Y-126863561D02*
X110447617Y-127396895D01*
X109114284Y-127358800D02*
X109190475Y-127396895D01*
X109190475Y-127396895D02*
X109342856Y-127396895D01*
X109342856Y-127396895D02*
X109419046Y-127358800D01*
X109419046Y-127358800D02*
X109457141Y-127320704D01*
X109457141Y-127320704D02*
X109495237Y-127244514D01*
X109495237Y-127244514D02*
X109495237Y-127015942D01*
X109495237Y-127015942D02*
X109457141Y-126939752D01*
X109457141Y-126939752D02*
X109419046Y-126901657D01*
X109419046Y-126901657D02*
X109342856Y-126863561D01*
X109342856Y-126863561D02*
X109190475Y-126863561D01*
X109190475Y-126863561D02*
X109114284Y-126901657D01*
X108466665Y-127396895D02*
X108466665Y-126863561D01*
X108466665Y-126863561D02*
X108580951Y-126863561D01*
X108580951Y-126863561D02*
X108657142Y-126901657D01*
X108657142Y-126901657D02*
X108695237Y-126977847D01*
X108695237Y-126977847D02*
X108733332Y-127282609D01*
X108733332Y-127282609D02*
X108771427Y-127358800D01*
X108771427Y-127358800D02*
X108847618Y-127396895D01*
X107742856Y-127396895D02*
X107742856Y-126977847D01*
X107742856Y-126977847D02*
X107780951Y-126901657D01*
X107780951Y-126901657D02*
X107857142Y-126863561D01*
X107857142Y-126863561D02*
X108009523Y-126863561D01*
X108009523Y-126863561D02*
X108085713Y-126901657D01*
X107742856Y-127358800D02*
X107819047Y-127396895D01*
X107819047Y-127396895D02*
X108009523Y-127396895D01*
X108009523Y-127396895D02*
X108085713Y-127358800D01*
X108085713Y-127358800D02*
X108123809Y-127282609D01*
X108123809Y-127282609D02*
X108123809Y-127206419D01*
X108123809Y-127206419D02*
X108085713Y-127130228D01*
X108085713Y-127130228D02*
X108009523Y-127092133D01*
X108009523Y-127092133D02*
X107819047Y-127092133D01*
X107819047Y-127092133D02*
X107742856Y-127054038D01*
X107171427Y-127130228D02*
X107057141Y-127168323D01*
X107057141Y-127168323D02*
X107019046Y-127244514D01*
X107019046Y-127244514D02*
X107019046Y-127282609D01*
X107019046Y-127282609D02*
X107057141Y-127358800D01*
X107057141Y-127358800D02*
X107133332Y-127396895D01*
X107133332Y-127396895D02*
X107361903Y-127396895D01*
X107361903Y-127396895D02*
X107361903Y-126863561D01*
X107361903Y-126863561D02*
X107171427Y-126863561D01*
X107171427Y-126863561D02*
X107095237Y-126901657D01*
X107095237Y-126901657D02*
X107057141Y-126977847D01*
X107057141Y-126977847D02*
X107057141Y-127015942D01*
X107057141Y-127015942D02*
X107095237Y-127092133D01*
X107095237Y-127092133D02*
X107171427Y-127130228D01*
X107171427Y-127130228D02*
X107361903Y-127130228D01*
X106333332Y-127396895D02*
X106333332Y-126977847D01*
X106333332Y-126977847D02*
X106371427Y-126901657D01*
X106371427Y-126901657D02*
X106447618Y-126863561D01*
X106447618Y-126863561D02*
X106599999Y-126863561D01*
X106599999Y-126863561D02*
X106676189Y-126901657D01*
X106333332Y-127358800D02*
X106409523Y-127396895D01*
X106409523Y-127396895D02*
X106599999Y-127396895D01*
X106599999Y-127396895D02*
X106676189Y-127358800D01*
X106676189Y-127358800D02*
X106714285Y-127282609D01*
X106714285Y-127282609D02*
X106714285Y-127206419D01*
X106714285Y-127206419D02*
X106676189Y-127130228D01*
X106676189Y-127130228D02*
X106599999Y-127092133D01*
X106599999Y-127092133D02*
X106409523Y-127092133D01*
X106409523Y-127092133D02*
X106333332Y-127054038D01*
X105952379Y-127320704D02*
X105914284Y-127358800D01*
X105914284Y-127358800D02*
X105952379Y-127396895D01*
X105952379Y-127396895D02*
X105990475Y-127358800D01*
X105990475Y-127358800D02*
X105952379Y-127320704D01*
X105952379Y-127320704D02*
X105952379Y-127396895D01*
X105952379Y-127092133D02*
X105990475Y-126634990D01*
X105990475Y-126634990D02*
X105952379Y-126596895D01*
X105952379Y-126596895D02*
X105914284Y-126634990D01*
X105914284Y-126634990D02*
X105952379Y-127092133D01*
X105952379Y-127092133D02*
X105952379Y-126596895D01*
X122604761Y-105608940D02*
X122871428Y-105227987D01*
X123061904Y-105608940D02*
X123061904Y-104808940D01*
X123061904Y-104808940D02*
X122757142Y-104808940D01*
X122757142Y-104808940D02*
X122680952Y-104847035D01*
X122680952Y-104847035D02*
X122642857Y-104885130D01*
X122642857Y-104885130D02*
X122604761Y-104961321D01*
X122604761Y-104961321D02*
X122604761Y-105075606D01*
X122604761Y-105075606D02*
X122642857Y-105151797D01*
X122642857Y-105151797D02*
X122680952Y-105189892D01*
X122680952Y-105189892D02*
X122757142Y-105227987D01*
X122757142Y-105227987D02*
X123061904Y-105227987D01*
X122261904Y-105189892D02*
X121995238Y-105189892D01*
X121880952Y-105608940D02*
X122261904Y-105608940D01*
X122261904Y-105608940D02*
X122261904Y-104808940D01*
X122261904Y-104808940D02*
X121880952Y-104808940D01*
X121538094Y-105608940D02*
X121538094Y-104808940D01*
X121538094Y-104808940D02*
X121080951Y-105608940D01*
X121080951Y-105608940D02*
X121080951Y-104808940D01*
X120814285Y-104808940D02*
X120357142Y-104808940D01*
X120585714Y-105608940D02*
X120585714Y-104808940D01*
X120090475Y-105189892D02*
X119823809Y-105189892D01*
X119709523Y-105608940D02*
X120090475Y-105608940D01*
X120090475Y-105608940D02*
X120090475Y-104808940D01*
X120090475Y-104808940D02*
X119709523Y-104808940D01*
X118909522Y-105532749D02*
X118947618Y-105570845D01*
X118947618Y-105570845D02*
X119061903Y-105608940D01*
X119061903Y-105608940D02*
X119138094Y-105608940D01*
X119138094Y-105608940D02*
X119252380Y-105570845D01*
X119252380Y-105570845D02*
X119328570Y-105494654D01*
X119328570Y-105494654D02*
X119366665Y-105418464D01*
X119366665Y-105418464D02*
X119404761Y-105266083D01*
X119404761Y-105266083D02*
X119404761Y-105151797D01*
X119404761Y-105151797D02*
X119366665Y-104999416D01*
X119366665Y-104999416D02*
X119328570Y-104923225D01*
X119328570Y-104923225D02*
X119252380Y-104847035D01*
X119252380Y-104847035D02*
X119138094Y-104808940D01*
X119138094Y-104808940D02*
X119061903Y-104808940D01*
X119061903Y-104808940D02*
X118947618Y-104847035D01*
X118947618Y-104847035D02*
X118909522Y-104885130D01*
X118566665Y-105608940D02*
X118566665Y-104808940D01*
X118566665Y-105189892D02*
X118109522Y-105189892D01*
X118109522Y-105608940D02*
X118109522Y-104808940D01*
X117119046Y-104808940D02*
X117119046Y-105456559D01*
X117119046Y-105456559D02*
X117080951Y-105532749D01*
X117080951Y-105532749D02*
X117042856Y-105570845D01*
X117042856Y-105570845D02*
X116966665Y-105608940D01*
X116966665Y-105608940D02*
X116814284Y-105608940D01*
X116814284Y-105608940D02*
X116738094Y-105570845D01*
X116738094Y-105570845D02*
X116699999Y-105532749D01*
X116699999Y-105532749D02*
X116661903Y-105456559D01*
X116661903Y-105456559D02*
X116661903Y-104808940D01*
X116280951Y-105304178D02*
X115671428Y-105304178D01*
X115290475Y-105608940D02*
X115290475Y-104808940D01*
X115290475Y-104808940D02*
X115023809Y-105380368D01*
X115023809Y-105380368D02*
X114757142Y-104808940D01*
X114757142Y-104808940D02*
X114757142Y-105608940D01*
X114223808Y-104808940D02*
X114071427Y-104808940D01*
X114071427Y-104808940D02*
X113995237Y-104847035D01*
X113995237Y-104847035D02*
X113919046Y-104923225D01*
X113919046Y-104923225D02*
X113880951Y-105075606D01*
X113880951Y-105075606D02*
X113880951Y-105342273D01*
X113880951Y-105342273D02*
X113919046Y-105494654D01*
X113919046Y-105494654D02*
X113995237Y-105570845D01*
X113995237Y-105570845D02*
X114071427Y-105608940D01*
X114071427Y-105608940D02*
X114223808Y-105608940D01*
X114223808Y-105608940D02*
X114299999Y-105570845D01*
X114299999Y-105570845D02*
X114376189Y-105494654D01*
X114376189Y-105494654D02*
X114414285Y-105342273D01*
X114414285Y-105342273D02*
X114414285Y-105075606D01*
X114414285Y-105075606D02*
X114376189Y-104923225D01*
X114376189Y-104923225D02*
X114299999Y-104847035D01*
X114299999Y-104847035D02*
X114223808Y-104808940D01*
X113576190Y-105570845D02*
X113461904Y-105608940D01*
X113461904Y-105608940D02*
X113271428Y-105608940D01*
X113271428Y-105608940D02*
X113195237Y-105570845D01*
X113195237Y-105570845D02*
X113157142Y-105532749D01*
X113157142Y-105532749D02*
X113119047Y-105456559D01*
X113119047Y-105456559D02*
X113119047Y-105380368D01*
X113119047Y-105380368D02*
X113157142Y-105304178D01*
X113157142Y-105304178D02*
X113195237Y-105266083D01*
X113195237Y-105266083D02*
X113271428Y-105227987D01*
X113271428Y-105227987D02*
X113423809Y-105189892D01*
X113423809Y-105189892D02*
X113499999Y-105151797D01*
X113499999Y-105151797D02*
X113538094Y-105113702D01*
X113538094Y-105113702D02*
X113576190Y-105037511D01*
X113576190Y-105037511D02*
X113576190Y-104961321D01*
X113576190Y-104961321D02*
X113538094Y-104885130D01*
X113538094Y-104885130D02*
X113499999Y-104847035D01*
X113499999Y-104847035D02*
X113423809Y-104808940D01*
X113423809Y-104808940D02*
X113233332Y-104808940D01*
X113233332Y-104808940D02*
X113119047Y-104847035D01*
X112509523Y-105189892D02*
X112776189Y-105189892D01*
X112776189Y-105608940D02*
X112776189Y-104808940D01*
X112776189Y-104808940D02*
X112395237Y-104808940D01*
X112090475Y-105189892D02*
X111823809Y-105189892D01*
X111709523Y-105608940D02*
X112090475Y-105608940D01*
X112090475Y-105608940D02*
X112090475Y-104808940D01*
X112090475Y-104808940D02*
X111709523Y-104808940D01*
X111480951Y-104808940D02*
X111023808Y-104808940D01*
X111252380Y-105608940D02*
X111252380Y-104808940D01*
X110757141Y-105304178D02*
X110147618Y-105304178D01*
X109766665Y-105608940D02*
X109766665Y-104808940D01*
X109309522Y-105608940D02*
X109652380Y-105151797D01*
X109309522Y-104808940D02*
X109766665Y-105266083D01*
X108966665Y-105189892D02*
X108699999Y-105189892D01*
X108585713Y-105608940D02*
X108966665Y-105608940D01*
X108966665Y-105608940D02*
X108966665Y-104808940D01*
X108966665Y-104808940D02*
X108585713Y-104808940D01*
X108090474Y-105227987D02*
X108090474Y-105608940D01*
X108357141Y-104808940D02*
X108090474Y-105227987D01*
X108090474Y-105227987D02*
X107823808Y-104808940D01*
X127328572Y-106896895D02*
X127328572Y-106096895D01*
X127328572Y-106096895D02*
X127138096Y-106096895D01*
X127138096Y-106096895D02*
X127023810Y-106134990D01*
X127023810Y-106134990D02*
X126947620Y-106211180D01*
X126947620Y-106211180D02*
X126909525Y-106287371D01*
X126909525Y-106287371D02*
X126871429Y-106439752D01*
X126871429Y-106439752D02*
X126871429Y-106554038D01*
X126871429Y-106554038D02*
X126909525Y-106706419D01*
X126909525Y-106706419D02*
X126947620Y-106782609D01*
X126947620Y-106782609D02*
X127023810Y-106858800D01*
X127023810Y-106858800D02*
X127138096Y-106896895D01*
X127138096Y-106896895D02*
X127328572Y-106896895D01*
X126223810Y-106858800D02*
X126300001Y-106896895D01*
X126300001Y-106896895D02*
X126452382Y-106896895D01*
X126452382Y-106896895D02*
X126528572Y-106858800D01*
X126528572Y-106858800D02*
X126566668Y-106782609D01*
X126566668Y-106782609D02*
X126566668Y-106477847D01*
X126566668Y-106477847D02*
X126528572Y-106401657D01*
X126528572Y-106401657D02*
X126452382Y-106363561D01*
X126452382Y-106363561D02*
X126300001Y-106363561D01*
X126300001Y-106363561D02*
X126223810Y-106401657D01*
X126223810Y-106401657D02*
X126185715Y-106477847D01*
X126185715Y-106477847D02*
X126185715Y-106554038D01*
X126185715Y-106554038D02*
X126566668Y-106630228D01*
X125880954Y-106858800D02*
X125804763Y-106896895D01*
X125804763Y-106896895D02*
X125652382Y-106896895D01*
X125652382Y-106896895D02*
X125576192Y-106858800D01*
X125576192Y-106858800D02*
X125538096Y-106782609D01*
X125538096Y-106782609D02*
X125538096Y-106744514D01*
X125538096Y-106744514D02*
X125576192Y-106668323D01*
X125576192Y-106668323D02*
X125652382Y-106630228D01*
X125652382Y-106630228D02*
X125766668Y-106630228D01*
X125766668Y-106630228D02*
X125842858Y-106592133D01*
X125842858Y-106592133D02*
X125880954Y-106515942D01*
X125880954Y-106515942D02*
X125880954Y-106477847D01*
X125880954Y-106477847D02*
X125842858Y-106401657D01*
X125842858Y-106401657D02*
X125766668Y-106363561D01*
X125766668Y-106363561D02*
X125652382Y-106363561D01*
X125652382Y-106363561D02*
X125576192Y-106401657D01*
X125195239Y-106896895D02*
X125195239Y-106363561D01*
X125195239Y-106096895D02*
X125233335Y-106134990D01*
X125233335Y-106134990D02*
X125195239Y-106173085D01*
X125195239Y-106173085D02*
X125157144Y-106134990D01*
X125157144Y-106134990D02*
X125195239Y-106096895D01*
X125195239Y-106096895D02*
X125195239Y-106173085D01*
X124471430Y-106363561D02*
X124471430Y-107011180D01*
X124471430Y-107011180D02*
X124509525Y-107087371D01*
X124509525Y-107087371D02*
X124547621Y-107125466D01*
X124547621Y-107125466D02*
X124623811Y-107163561D01*
X124623811Y-107163561D02*
X124738097Y-107163561D01*
X124738097Y-107163561D02*
X124814287Y-107125466D01*
X124471430Y-106858800D02*
X124547621Y-106896895D01*
X124547621Y-106896895D02*
X124700002Y-106896895D01*
X124700002Y-106896895D02*
X124776192Y-106858800D01*
X124776192Y-106858800D02*
X124814287Y-106820704D01*
X124814287Y-106820704D02*
X124852383Y-106744514D01*
X124852383Y-106744514D02*
X124852383Y-106515942D01*
X124852383Y-106515942D02*
X124814287Y-106439752D01*
X124814287Y-106439752D02*
X124776192Y-106401657D01*
X124776192Y-106401657D02*
X124700002Y-106363561D01*
X124700002Y-106363561D02*
X124547621Y-106363561D01*
X124547621Y-106363561D02*
X124471430Y-106401657D01*
X124090477Y-106363561D02*
X124090477Y-106896895D01*
X124090477Y-106439752D02*
X124052382Y-106401657D01*
X124052382Y-106401657D02*
X123976192Y-106363561D01*
X123976192Y-106363561D02*
X123861906Y-106363561D01*
X123861906Y-106363561D02*
X123785715Y-106401657D01*
X123785715Y-106401657D02*
X123747620Y-106477847D01*
X123747620Y-106477847D02*
X123747620Y-106896895D01*
X123061905Y-106858800D02*
X123138096Y-106896895D01*
X123138096Y-106896895D02*
X123290477Y-106896895D01*
X123290477Y-106896895D02*
X123366667Y-106858800D01*
X123366667Y-106858800D02*
X123404763Y-106782609D01*
X123404763Y-106782609D02*
X123404763Y-106477847D01*
X123404763Y-106477847D02*
X123366667Y-106401657D01*
X123366667Y-106401657D02*
X123290477Y-106363561D01*
X123290477Y-106363561D02*
X123138096Y-106363561D01*
X123138096Y-106363561D02*
X123061905Y-106401657D01*
X123061905Y-106401657D02*
X123023810Y-106477847D01*
X123023810Y-106477847D02*
X123023810Y-106554038D01*
X123023810Y-106554038D02*
X123404763Y-106630228D01*
X122338096Y-106896895D02*
X122338096Y-106096895D01*
X122338096Y-106858800D02*
X122414287Y-106896895D01*
X122414287Y-106896895D02*
X122566668Y-106896895D01*
X122566668Y-106896895D02*
X122642858Y-106858800D01*
X122642858Y-106858800D02*
X122680953Y-106820704D01*
X122680953Y-106820704D02*
X122719049Y-106744514D01*
X122719049Y-106744514D02*
X122719049Y-106515942D01*
X122719049Y-106515942D02*
X122680953Y-106439752D01*
X122680953Y-106439752D02*
X122642858Y-106401657D01*
X122642858Y-106401657D02*
X122566668Y-106363561D01*
X122566668Y-106363561D02*
X122414287Y-106363561D01*
X122414287Y-106363561D02*
X122338096Y-106401657D01*
X121004762Y-106896895D02*
X121004762Y-106477847D01*
X121004762Y-106477847D02*
X121042857Y-106401657D01*
X121042857Y-106401657D02*
X121119048Y-106363561D01*
X121119048Y-106363561D02*
X121271429Y-106363561D01*
X121271429Y-106363561D02*
X121347619Y-106401657D01*
X121004762Y-106858800D02*
X121080953Y-106896895D01*
X121080953Y-106896895D02*
X121271429Y-106896895D01*
X121271429Y-106896895D02*
X121347619Y-106858800D01*
X121347619Y-106858800D02*
X121385715Y-106782609D01*
X121385715Y-106782609D02*
X121385715Y-106706419D01*
X121385715Y-106706419D02*
X121347619Y-106630228D01*
X121347619Y-106630228D02*
X121271429Y-106592133D01*
X121271429Y-106592133D02*
X121080953Y-106592133D01*
X121080953Y-106592133D02*
X121004762Y-106554038D01*
X120623809Y-106363561D02*
X120623809Y-106896895D01*
X120623809Y-106439752D02*
X120585714Y-106401657D01*
X120585714Y-106401657D02*
X120509524Y-106363561D01*
X120509524Y-106363561D02*
X120395238Y-106363561D01*
X120395238Y-106363561D02*
X120319047Y-106401657D01*
X120319047Y-106401657D02*
X120280952Y-106477847D01*
X120280952Y-106477847D02*
X120280952Y-106896895D01*
X119557142Y-106896895D02*
X119557142Y-106096895D01*
X119557142Y-106858800D02*
X119633333Y-106896895D01*
X119633333Y-106896895D02*
X119785714Y-106896895D01*
X119785714Y-106896895D02*
X119861904Y-106858800D01*
X119861904Y-106858800D02*
X119899999Y-106820704D01*
X119899999Y-106820704D02*
X119938095Y-106744514D01*
X119938095Y-106744514D02*
X119938095Y-106515942D01*
X119938095Y-106515942D02*
X119899999Y-106439752D01*
X119899999Y-106439752D02*
X119861904Y-106401657D01*
X119861904Y-106401657D02*
X119785714Y-106363561D01*
X119785714Y-106363561D02*
X119633333Y-106363561D01*
X119633333Y-106363561D02*
X119557142Y-106401657D01*
X118566665Y-106896895D02*
X118566665Y-106096895D01*
X118566665Y-106096895D02*
X118261903Y-106096895D01*
X118261903Y-106096895D02*
X118185713Y-106134990D01*
X118185713Y-106134990D02*
X118147618Y-106173085D01*
X118147618Y-106173085D02*
X118109522Y-106249276D01*
X118109522Y-106249276D02*
X118109522Y-106363561D01*
X118109522Y-106363561D02*
X118147618Y-106439752D01*
X118147618Y-106439752D02*
X118185713Y-106477847D01*
X118185713Y-106477847D02*
X118261903Y-106515942D01*
X118261903Y-106515942D02*
X118566665Y-106515942D01*
X117652380Y-106896895D02*
X117728570Y-106858800D01*
X117728570Y-106858800D02*
X117766665Y-106820704D01*
X117766665Y-106820704D02*
X117804761Y-106744514D01*
X117804761Y-106744514D02*
X117804761Y-106515942D01*
X117804761Y-106515942D02*
X117766665Y-106439752D01*
X117766665Y-106439752D02*
X117728570Y-106401657D01*
X117728570Y-106401657D02*
X117652380Y-106363561D01*
X117652380Y-106363561D02*
X117538094Y-106363561D01*
X117538094Y-106363561D02*
X117461903Y-106401657D01*
X117461903Y-106401657D02*
X117423808Y-106439752D01*
X117423808Y-106439752D02*
X117385713Y-106515942D01*
X117385713Y-106515942D02*
X117385713Y-106744514D01*
X117385713Y-106744514D02*
X117423808Y-106820704D01*
X117423808Y-106820704D02*
X117461903Y-106858800D01*
X117461903Y-106858800D02*
X117538094Y-106896895D01*
X117538094Y-106896895D02*
X117652380Y-106896895D01*
X117119046Y-106363561D02*
X116966665Y-106896895D01*
X116966665Y-106896895D02*
X116814284Y-106515942D01*
X116814284Y-106515942D02*
X116661903Y-106896895D01*
X116661903Y-106896895D02*
X116509522Y-106363561D01*
X115899998Y-106858800D02*
X115976189Y-106896895D01*
X115976189Y-106896895D02*
X116128570Y-106896895D01*
X116128570Y-106896895D02*
X116204760Y-106858800D01*
X116204760Y-106858800D02*
X116242856Y-106782609D01*
X116242856Y-106782609D02*
X116242856Y-106477847D01*
X116242856Y-106477847D02*
X116204760Y-106401657D01*
X116204760Y-106401657D02*
X116128570Y-106363561D01*
X116128570Y-106363561D02*
X115976189Y-106363561D01*
X115976189Y-106363561D02*
X115899998Y-106401657D01*
X115899998Y-106401657D02*
X115861903Y-106477847D01*
X115861903Y-106477847D02*
X115861903Y-106554038D01*
X115861903Y-106554038D02*
X116242856Y-106630228D01*
X115519046Y-106896895D02*
X115519046Y-106363561D01*
X115519046Y-106515942D02*
X115480951Y-106439752D01*
X115480951Y-106439752D02*
X115442856Y-106401657D01*
X115442856Y-106401657D02*
X115366665Y-106363561D01*
X115366665Y-106363561D02*
X115290475Y-106363561D01*
X114719046Y-106858800D02*
X114795237Y-106896895D01*
X114795237Y-106896895D02*
X114947618Y-106896895D01*
X114947618Y-106896895D02*
X115023808Y-106858800D01*
X115023808Y-106858800D02*
X115061904Y-106782609D01*
X115061904Y-106782609D02*
X115061904Y-106477847D01*
X115061904Y-106477847D02*
X115023808Y-106401657D01*
X115023808Y-106401657D02*
X114947618Y-106363561D01*
X114947618Y-106363561D02*
X114795237Y-106363561D01*
X114795237Y-106363561D02*
X114719046Y-106401657D01*
X114719046Y-106401657D02*
X114680951Y-106477847D01*
X114680951Y-106477847D02*
X114680951Y-106554038D01*
X114680951Y-106554038D02*
X115061904Y-106630228D01*
X113995237Y-106896895D02*
X113995237Y-106096895D01*
X113995237Y-106858800D02*
X114071428Y-106896895D01*
X114071428Y-106896895D02*
X114223809Y-106896895D01*
X114223809Y-106896895D02*
X114299999Y-106858800D01*
X114299999Y-106858800D02*
X114338094Y-106820704D01*
X114338094Y-106820704D02*
X114376190Y-106744514D01*
X114376190Y-106744514D02*
X114376190Y-106515942D01*
X114376190Y-106515942D02*
X114338094Y-106439752D01*
X114338094Y-106439752D02*
X114299999Y-106401657D01*
X114299999Y-106401657D02*
X114223809Y-106363561D01*
X114223809Y-106363561D02*
X114071428Y-106363561D01*
X114071428Y-106363561D02*
X113995237Y-106401657D01*
X113004760Y-106896895D02*
X113004760Y-106096895D01*
X113004760Y-106401657D02*
X112928570Y-106363561D01*
X112928570Y-106363561D02*
X112776189Y-106363561D01*
X112776189Y-106363561D02*
X112699998Y-106401657D01*
X112699998Y-106401657D02*
X112661903Y-106439752D01*
X112661903Y-106439752D02*
X112623808Y-106515942D01*
X112623808Y-106515942D02*
X112623808Y-106744514D01*
X112623808Y-106744514D02*
X112661903Y-106820704D01*
X112661903Y-106820704D02*
X112699998Y-106858800D01*
X112699998Y-106858800D02*
X112776189Y-106896895D01*
X112776189Y-106896895D02*
X112928570Y-106896895D01*
X112928570Y-106896895D02*
X113004760Y-106858800D01*
X112357141Y-106363561D02*
X112166665Y-106896895D01*
X111976188Y-106363561D02*
X112166665Y-106896895D01*
X112166665Y-106896895D02*
X112242855Y-107087371D01*
X112242855Y-107087371D02*
X112280950Y-107125466D01*
X112280950Y-107125466D02*
X112357141Y-107163561D01*
X110833331Y-106096895D02*
X110833331Y-106668323D01*
X110833331Y-106668323D02*
X110871426Y-106782609D01*
X110871426Y-106782609D02*
X110947617Y-106858800D01*
X110947617Y-106858800D02*
X111061902Y-106896895D01*
X111061902Y-106896895D02*
X111138093Y-106896895D01*
X110109521Y-106363561D02*
X110109521Y-106896895D01*
X110452378Y-106363561D02*
X110452378Y-106782609D01*
X110452378Y-106782609D02*
X110414283Y-106858800D01*
X110414283Y-106858800D02*
X110338093Y-106896895D01*
X110338093Y-106896895D02*
X110223807Y-106896895D01*
X110223807Y-106896895D02*
X110147616Y-106858800D01*
X110147616Y-106858800D02*
X110109521Y-106820704D01*
X109766664Y-106858800D02*
X109690473Y-106896895D01*
X109690473Y-106896895D02*
X109538092Y-106896895D01*
X109538092Y-106896895D02*
X109461902Y-106858800D01*
X109461902Y-106858800D02*
X109423806Y-106782609D01*
X109423806Y-106782609D02*
X109423806Y-106744514D01*
X109423806Y-106744514D02*
X109461902Y-106668323D01*
X109461902Y-106668323D02*
X109538092Y-106630228D01*
X109538092Y-106630228D02*
X109652378Y-106630228D01*
X109652378Y-106630228D02*
X109728568Y-106592133D01*
X109728568Y-106592133D02*
X109766664Y-106515942D01*
X109766664Y-106515942D02*
X109766664Y-106477847D01*
X109766664Y-106477847D02*
X109728568Y-106401657D01*
X109728568Y-106401657D02*
X109652378Y-106363561D01*
X109652378Y-106363561D02*
X109538092Y-106363561D01*
X109538092Y-106363561D02*
X109461902Y-106401657D01*
X109195235Y-106363561D02*
X108890473Y-106363561D01*
X109080949Y-106096895D02*
X109080949Y-106782609D01*
X109080949Y-106782609D02*
X109042854Y-106858800D01*
X109042854Y-106858800D02*
X108966664Y-106896895D01*
X108966664Y-106896895D02*
X108890473Y-106896895D01*
X108128568Y-106096895D02*
X107861901Y-106896895D01*
X107861901Y-106896895D02*
X107595235Y-106096895D01*
X107328568Y-106820704D02*
X107290473Y-106858800D01*
X107290473Y-106858800D02*
X107328568Y-106896895D01*
X107328568Y-106896895D02*
X107366664Y-106858800D01*
X107366664Y-106858800D02*
X107328568Y-106820704D01*
X107328568Y-106820704D02*
X107328568Y-106896895D01*
X106299997Y-106896895D02*
X106338093Y-106896895D01*
X106338093Y-106896895D02*
X106414283Y-106858800D01*
X106414283Y-106858800D02*
X106528569Y-106744514D01*
X106528569Y-106744514D02*
X106719045Y-106515942D01*
X106719045Y-106515942D02*
X106795235Y-106401657D01*
X106795235Y-106401657D02*
X106833331Y-106287371D01*
X106833331Y-106287371D02*
X106833331Y-106211180D01*
X106833331Y-106211180D02*
X106795235Y-106134990D01*
X106795235Y-106134990D02*
X106719045Y-106096895D01*
X106719045Y-106096895D02*
X106680950Y-106096895D01*
X106680950Y-106096895D02*
X106604759Y-106134990D01*
X106604759Y-106134990D02*
X106566664Y-106211180D01*
X106566664Y-106211180D02*
X106566664Y-106249276D01*
X106566664Y-106249276D02*
X106604759Y-106325466D01*
X106604759Y-106325466D02*
X106642854Y-106363561D01*
X106642854Y-106363561D02*
X106871426Y-106515942D01*
X106871426Y-106515942D02*
X106909521Y-106554038D01*
X106909521Y-106554038D02*
X106947616Y-106630228D01*
X106947616Y-106630228D02*
X106947616Y-106744514D01*
X106947616Y-106744514D02*
X106909521Y-106820704D01*
X106909521Y-106820704D02*
X106871426Y-106858800D01*
X106871426Y-106858800D02*
X106795235Y-106896895D01*
X106795235Y-106896895D02*
X106680950Y-106896895D01*
X106680950Y-106896895D02*
X106604759Y-106858800D01*
X106604759Y-106858800D02*
X106566664Y-106820704D01*
X106566664Y-106820704D02*
X106452378Y-106668323D01*
X106452378Y-106668323D02*
X106414283Y-106554038D01*
X106414283Y-106554038D02*
X106414283Y-106477847D01*
X105957140Y-106896895D02*
X105957140Y-106096895D01*
X105499997Y-106896895D02*
X105842855Y-106439752D01*
X105499997Y-106096895D02*
X105957140Y-106554038D01*
X105157140Y-106896895D02*
X105157140Y-106096895D01*
X104319045Y-106896895D02*
X104585712Y-106515942D01*
X104776188Y-106896895D02*
X104776188Y-106096895D01*
X104776188Y-106096895D02*
X104471426Y-106096895D01*
X104471426Y-106096895D02*
X104395236Y-106134990D01*
X104395236Y-106134990D02*
X104357141Y-106173085D01*
X104357141Y-106173085D02*
X104319045Y-106249276D01*
X104319045Y-106249276D02*
X104319045Y-106363561D01*
X104319045Y-106363561D02*
X104357141Y-106439752D01*
X104357141Y-106439752D02*
X104395236Y-106477847D01*
X104395236Y-106477847D02*
X104471426Y-106515942D01*
X104471426Y-106515942D02*
X104776188Y-106515942D01*
X104014284Y-106668323D02*
X103633331Y-106668323D01*
X104090474Y-106896895D02*
X103823807Y-106096895D01*
X103823807Y-106096895D02*
X103557141Y-106896895D01*
M02*
