%TF.GenerationSoftware,KiCad,Pcbnew,10.0.5*%
%TF.CreationDate,2026-10-03T19:54:52+03:00*%
%TF.ProjectId,UNI_MOSFET_KEY,554e495f-4d4f-4534-9645-545f4b45592e,rev?*%
%TF.SameCoordinates,Original*%
%TF.FileFunction,Copper,L2,Bot*%
%TF.FilePolarity,Positive*%
%FSLAX46Y46*%
G04 Gerber Fmt 4.6, Leading zero omitted, Abs format (unit mm)*
G04 Created by KiCad (PCBNEW 10.0.5) date 2026-10-03 19:54:52*
%MOMM*%
%LPD*%
G01*
G04 APERTURE LIST*
G04 Aperture macros list*
%AMRoundRect*
0 Rectangle with rounded corners*
0 $1 Rounding radius*
0 $2 $3 $4 $5 $6 $7 $8 $9 X,Y pos of 4 corners*
0 Add a 4 corners polygon primitive as box body*
4,1,4,$2,$3,$4,$5,$6,$7,$8,$9,$2,$3,0*
0 Add four circle primitives for the rounded corners*
1,1,$1+$1,$2,$3*
1,1,$1+$1,$4,$5*
1,1,$1+$1,$6,$7*
1,1,$1+$1,$8,$9*
0 Add four rect primitives between the rounded corners*
20,1,$1+$1,$2,$3,$4,$5,0*
20,1,$1+$1,$4,$5,$6,$7,0*
20,1,$1+$1,$6,$7,$8,$9,0*
20,1,$1+$1,$8,$9,$2,$3,0*%
G04 Aperture macros list end*
%TA.AperFunction,ComponentPad*%
%ADD10O,1.750000X1.200000*%
%TD*%
%TA.AperFunction,ComponentPad*%
%ADD11RoundRect,0.250000X-0.625000X0.350000X-0.625000X-0.350000X0.625000X-0.350000X0.625000X0.350000X0*%
%TD*%
%TA.AperFunction,ComponentPad*%
%ADD12C,3.800000*%
%TD*%
%TA.AperFunction,ComponentPad*%
%ADD13RoundRect,0.250000X0.625000X-0.350000X0.625000X0.350000X-0.625000X0.350000X-0.625000X-0.350000X0*%
%TD*%
%TA.AperFunction,ViaPad*%
%ADD14C,0.600000*%
%TD*%
%TA.AperFunction,Conductor*%
%ADD15C,0.200000*%
%TD*%
G04 APERTURE END LIST*
D10*
%TO.P,U1 conn,3,Pin_3_3*%
%TO.N,/N-OUT(D)*%
X102500000Y-109000000D03*
%TO.P,U1 conn,2,Pin_2_2*%
%TO.N,/N-IN(S)*%
X102500000Y-107000000D03*
D11*
%TO.P,U1 conn,1,Pin_1_1*%
%TO.N,/N-CTRL*%
X102500000Y-105000000D03*
%TD*%
D12*
%TO.P,,2*%
%TO.N,N/C*%
X127000000Y-103000000D03*
%TD*%
%TO.P,,3*%
%TO.N,N/C*%
X127000000Y-127000000D03*
%TD*%
D11*
%TO.P,U2 conn,1,Pin_1_1*%
%TO.N,/P-CTRL*%
X102500000Y-120500000D03*
D10*
%TO.P,U2 conn,2,Pin_2_2*%
%TO.N,/P-IN(S)*%
X102500000Y-122500000D03*
%TO.P,U2 conn,3,Pin_3_3*%
%TO.N,/P-OUT(D)*%
X102500000Y-124500000D03*
%TD*%
D12*
%TO.P,REF\u002A\u002A,1*%
%TO.N,N/C*%
X103000000Y-114500000D03*
%TD*%
D13*
%TO.P,J1,1,Pin_1_1*%
%TO.N,/VCC*%
X127550000Y-115000000D03*
D10*
%TO.P,J1,2,Pin_2_2*%
%TO.N,/GND*%
X127550000Y-113000000D03*
%TD*%
D14*
%TO.N,/VCC*%
X124000000Y-111500000D03*
X126500000Y-114000000D03*
%TO.N,/P-IN(S)*%
X112500000Y-123900000D03*
X113500000Y-125000000D03*
X122500000Y-111500000D03*
%TO.N,/N-OUT(D)*%
X125000000Y-108500000D03*
X128500000Y-112000000D03*
%TO.N,/P-OUT(D)*%
X114500000Y-119000000D03*
X114500000Y-123000000D03*
%TO.N,Net-(D1-K)*%
X121500000Y-122500000D03*
X118500000Y-120400000D03*
%TO.N,/P-CTRL*%
X114500000Y-116000000D03*
X106500000Y-120500000D03*
%TO.N,Net-(U2-G)*%
X118000000Y-123000000D03*
X120000000Y-122000000D03*
X120412909Y-120109379D03*
%TO.N,/P-CTRL*%
X116000000Y-117000000D03*
X126000000Y-119000000D03*
%TD*%
%TO.N,/VCC*%
D15*
X124000000Y-111500000D02*
X126500000Y-114000000D01*
%TO.N,/P-IN(S)*%
X112500000Y-124000000D02*
X113500000Y-125000000D01*
X112500000Y-123900000D02*
X112500000Y-124000000D01*
X122500000Y-111500000D02*
X120651471Y-111500000D01*
X113500000Y-118651471D02*
X113500000Y-125000000D01*
X120651471Y-111500000D02*
X113500000Y-118651471D01*
%TO.N,/N-OUT(D)*%
X125000000Y-108500000D02*
X128500000Y-112000000D01*
%TO.N,/P-OUT(D)*%
X114500000Y-119000000D02*
X114500000Y-123000000D01*
%TO.N,Net-(D1-K)*%
X121500000Y-120347941D02*
X121500000Y-122500000D01*
X120661438Y-119509379D02*
X121500000Y-120347941D01*
X118500000Y-120400000D02*
X119390621Y-119509379D01*
X119390621Y-119509379D02*
X120661438Y-119509379D01*
%TO.N,/P-CTRL*%
X110000000Y-120500000D02*
X114500000Y-116000000D01*
X106500000Y-120500000D02*
X110000000Y-120500000D01*
%TO.N,Net-(U2-G)*%
X119000000Y-123000000D02*
X118000000Y-123000000D01*
X120000000Y-122000000D02*
X119000000Y-123000000D01*
X120412909Y-121587091D02*
X120000000Y-122000000D01*
X120412909Y-120109379D02*
X120412909Y-121587091D01*
%TO.N,/P-CTRL*%
X124000000Y-117000000D02*
X116000000Y-117000000D01*
X126000000Y-119000000D02*
X124000000Y-117000000D01*
%TD*%
M02*
