%TF.GenerationSoftware,KiCad,Pcbnew,10.0.5*%
%TF.CreationDate,2026-10-03T19:54:52+03:00*%
%TF.ProjectId,UNI_MOSFET_KEY,554e495f-4d4f-4534-9645-545f4b45592e,rev?*%
%TF.SameCoordinates,Original*%
%TF.FileFunction,Legend,Top*%
%TF.FilePolarity,Positive*%
%FSLAX46Y46*%
G04 Gerber Fmt 4.6, Leading zero omitted, Abs format (unit mm)*
G04 Created by KiCad (PCBNEW 10.0.5) date 2026-10-03 19:54:52*
%MOMM*%
%LPD*%
G01*
G04 APERTURE LIST*
%ADD10C,0.100000*%
%ADD11C,0.150000*%
%ADD12C,0.120000*%
G04 APERTURE END LIST*
D10*
X113756265Y-112092133D02*
X114365789Y-112092133D01*
X116756265Y-112092133D02*
X117365789Y-112092133D01*
X117061027Y-112396895D02*
X117061027Y-111787371D01*
X107756265Y-102896895D02*
X107756265Y-102096895D01*
X107756265Y-102096895D02*
X108213408Y-102896895D01*
X108213408Y-102896895D02*
X108213408Y-102096895D01*
X108594360Y-102592133D02*
X109203884Y-102592133D01*
X109584836Y-102896895D02*
X109584836Y-102096895D01*
X109584836Y-102096895D02*
X109851502Y-102668323D01*
X109851502Y-102668323D02*
X110118169Y-102096895D01*
X110118169Y-102096895D02*
X110118169Y-102896895D01*
X110651503Y-102096895D02*
X110803884Y-102096895D01*
X110803884Y-102096895D02*
X110880074Y-102134990D01*
X110880074Y-102134990D02*
X110956265Y-102211180D01*
X110956265Y-102211180D02*
X110994360Y-102363561D01*
X110994360Y-102363561D02*
X110994360Y-102630228D01*
X110994360Y-102630228D02*
X110956265Y-102782609D01*
X110956265Y-102782609D02*
X110880074Y-102858800D01*
X110880074Y-102858800D02*
X110803884Y-102896895D01*
X110803884Y-102896895D02*
X110651503Y-102896895D01*
X110651503Y-102896895D02*
X110575312Y-102858800D01*
X110575312Y-102858800D02*
X110499122Y-102782609D01*
X110499122Y-102782609D02*
X110461026Y-102630228D01*
X110461026Y-102630228D02*
X110461026Y-102363561D01*
X110461026Y-102363561D02*
X110499122Y-102211180D01*
X110499122Y-102211180D02*
X110575312Y-102134990D01*
X110575312Y-102134990D02*
X110651503Y-102096895D01*
X111299121Y-102858800D02*
X111413407Y-102896895D01*
X111413407Y-102896895D02*
X111603883Y-102896895D01*
X111603883Y-102896895D02*
X111680074Y-102858800D01*
X111680074Y-102858800D02*
X111718169Y-102820704D01*
X111718169Y-102820704D02*
X111756264Y-102744514D01*
X111756264Y-102744514D02*
X111756264Y-102668323D01*
X111756264Y-102668323D02*
X111718169Y-102592133D01*
X111718169Y-102592133D02*
X111680074Y-102554038D01*
X111680074Y-102554038D02*
X111603883Y-102515942D01*
X111603883Y-102515942D02*
X111451502Y-102477847D01*
X111451502Y-102477847D02*
X111375312Y-102439752D01*
X111375312Y-102439752D02*
X111337217Y-102401657D01*
X111337217Y-102401657D02*
X111299121Y-102325466D01*
X111299121Y-102325466D02*
X111299121Y-102249276D01*
X111299121Y-102249276D02*
X111337217Y-102173085D01*
X111337217Y-102173085D02*
X111375312Y-102134990D01*
X111375312Y-102134990D02*
X111451502Y-102096895D01*
X111451502Y-102096895D02*
X111641979Y-102096895D01*
X111641979Y-102096895D02*
X111756264Y-102134990D01*
X112365788Y-102477847D02*
X112099122Y-102477847D01*
X112099122Y-102896895D02*
X112099122Y-102096895D01*
X112099122Y-102096895D02*
X112480074Y-102096895D01*
X112784836Y-102477847D02*
X113051502Y-102477847D01*
X113165788Y-102896895D02*
X112784836Y-102896895D01*
X112784836Y-102896895D02*
X112784836Y-102096895D01*
X112784836Y-102096895D02*
X113165788Y-102096895D01*
X113394360Y-102096895D02*
X113851503Y-102096895D01*
X113622931Y-102896895D02*
X113622931Y-102096895D01*
X107756265Y-118396895D02*
X107756265Y-117596895D01*
X107756265Y-117596895D02*
X108061027Y-117596895D01*
X108061027Y-117596895D02*
X108137217Y-117634990D01*
X108137217Y-117634990D02*
X108175312Y-117673085D01*
X108175312Y-117673085D02*
X108213408Y-117749276D01*
X108213408Y-117749276D02*
X108213408Y-117863561D01*
X108213408Y-117863561D02*
X108175312Y-117939752D01*
X108175312Y-117939752D02*
X108137217Y-117977847D01*
X108137217Y-117977847D02*
X108061027Y-118015942D01*
X108061027Y-118015942D02*
X107756265Y-118015942D01*
X108556265Y-118092133D02*
X109165789Y-118092133D01*
X109546741Y-118396895D02*
X109546741Y-117596895D01*
X109546741Y-117596895D02*
X109813407Y-118168323D01*
X109813407Y-118168323D02*
X110080074Y-117596895D01*
X110080074Y-117596895D02*
X110080074Y-118396895D01*
X110613408Y-117596895D02*
X110765789Y-117596895D01*
X110765789Y-117596895D02*
X110841979Y-117634990D01*
X110841979Y-117634990D02*
X110918170Y-117711180D01*
X110918170Y-117711180D02*
X110956265Y-117863561D01*
X110956265Y-117863561D02*
X110956265Y-118130228D01*
X110956265Y-118130228D02*
X110918170Y-118282609D01*
X110918170Y-118282609D02*
X110841979Y-118358800D01*
X110841979Y-118358800D02*
X110765789Y-118396895D01*
X110765789Y-118396895D02*
X110613408Y-118396895D01*
X110613408Y-118396895D02*
X110537217Y-118358800D01*
X110537217Y-118358800D02*
X110461027Y-118282609D01*
X110461027Y-118282609D02*
X110422931Y-118130228D01*
X110422931Y-118130228D02*
X110422931Y-117863561D01*
X110422931Y-117863561D02*
X110461027Y-117711180D01*
X110461027Y-117711180D02*
X110537217Y-117634990D01*
X110537217Y-117634990D02*
X110613408Y-117596895D01*
X111261026Y-118358800D02*
X111375312Y-118396895D01*
X111375312Y-118396895D02*
X111565788Y-118396895D01*
X111565788Y-118396895D02*
X111641979Y-118358800D01*
X111641979Y-118358800D02*
X111680074Y-118320704D01*
X111680074Y-118320704D02*
X111718169Y-118244514D01*
X111718169Y-118244514D02*
X111718169Y-118168323D01*
X111718169Y-118168323D02*
X111680074Y-118092133D01*
X111680074Y-118092133D02*
X111641979Y-118054038D01*
X111641979Y-118054038D02*
X111565788Y-118015942D01*
X111565788Y-118015942D02*
X111413407Y-117977847D01*
X111413407Y-117977847D02*
X111337217Y-117939752D01*
X111337217Y-117939752D02*
X111299122Y-117901657D01*
X111299122Y-117901657D02*
X111261026Y-117825466D01*
X111261026Y-117825466D02*
X111261026Y-117749276D01*
X111261026Y-117749276D02*
X111299122Y-117673085D01*
X111299122Y-117673085D02*
X111337217Y-117634990D01*
X111337217Y-117634990D02*
X111413407Y-117596895D01*
X111413407Y-117596895D02*
X111603884Y-117596895D01*
X111603884Y-117596895D02*
X111718169Y-117634990D01*
X112327693Y-117977847D02*
X112061027Y-117977847D01*
X112061027Y-118396895D02*
X112061027Y-117596895D01*
X112061027Y-117596895D02*
X112441979Y-117596895D01*
X112746741Y-117977847D02*
X113013407Y-117977847D01*
X113127693Y-118396895D02*
X112746741Y-118396895D01*
X112746741Y-118396895D02*
X112746741Y-117596895D01*
X112746741Y-117596895D02*
X113127693Y-117596895D01*
X113356265Y-117596895D02*
X113813408Y-117596895D01*
X113584836Y-118396895D02*
X113584836Y-117596895D01*
X106872419Y-124196115D02*
X105872419Y-124196115D01*
X105872419Y-124196115D02*
X105872419Y-123958020D01*
X105872419Y-123958020D02*
X105920038Y-123815163D01*
X105920038Y-123815163D02*
X106015276Y-123719925D01*
X106015276Y-123719925D02*
X106110514Y-123672306D01*
X106110514Y-123672306D02*
X106300990Y-123624687D01*
X106300990Y-123624687D02*
X106443847Y-123624687D01*
X106443847Y-123624687D02*
X106634323Y-123672306D01*
X106634323Y-123672306D02*
X106729561Y-123719925D01*
X106729561Y-123719925D02*
X106824800Y-123815163D01*
X106824800Y-123815163D02*
X106872419Y-123958020D01*
X106872419Y-123958020D02*
X106872419Y-124196115D01*
X106824800Y-122481829D02*
X106872419Y-122338972D01*
X106872419Y-122338972D02*
X106872419Y-122100877D01*
X106872419Y-122100877D02*
X106824800Y-122005639D01*
X106824800Y-122005639D02*
X106777180Y-121958020D01*
X106777180Y-121958020D02*
X106681942Y-121910401D01*
X106681942Y-121910401D02*
X106586704Y-121910401D01*
X106586704Y-121910401D02*
X106491466Y-121958020D01*
X106491466Y-121958020D02*
X106443847Y-122005639D01*
X106443847Y-122005639D02*
X106396228Y-122100877D01*
X106396228Y-122100877D02*
X106348609Y-122291353D01*
X106348609Y-122291353D02*
X106300990Y-122386591D01*
X106300990Y-122386591D02*
X106253371Y-122434210D01*
X106253371Y-122434210D02*
X106158133Y-122481829D01*
X106158133Y-122481829D02*
X106062895Y-122481829D01*
X106062895Y-122481829D02*
X105967657Y-122434210D01*
X105967657Y-122434210D02*
X105920038Y-122386591D01*
X105920038Y-122386591D02*
X105872419Y-122291353D01*
X105872419Y-122291353D02*
X105872419Y-122053258D01*
X105872419Y-122053258D02*
X105920038Y-121910401D01*
X105920038Y-120196115D02*
X105872419Y-120291353D01*
X105872419Y-120291353D02*
X105872419Y-120434210D01*
X105872419Y-120434210D02*
X105920038Y-120577067D01*
X105920038Y-120577067D02*
X106015276Y-120672305D01*
X106015276Y-120672305D02*
X106110514Y-120719924D01*
X106110514Y-120719924D02*
X106300990Y-120767543D01*
X106300990Y-120767543D02*
X106443847Y-120767543D01*
X106443847Y-120767543D02*
X106634323Y-120719924D01*
X106634323Y-120719924D02*
X106729561Y-120672305D01*
X106729561Y-120672305D02*
X106824800Y-120577067D01*
X106824800Y-120577067D02*
X106872419Y-120434210D01*
X106872419Y-120434210D02*
X106872419Y-120338972D01*
X106872419Y-120338972D02*
X106824800Y-120196115D01*
X106824800Y-120196115D02*
X106777180Y-120148496D01*
X106777180Y-120148496D02*
X106443847Y-120148496D01*
X106443847Y-120148496D02*
X106443847Y-120338972D01*
X106872419Y-109196115D02*
X105872419Y-109196115D01*
X105872419Y-109196115D02*
X105872419Y-108958020D01*
X105872419Y-108958020D02*
X105920038Y-108815163D01*
X105920038Y-108815163D02*
X106015276Y-108719925D01*
X106015276Y-108719925D02*
X106110514Y-108672306D01*
X106110514Y-108672306D02*
X106300990Y-108624687D01*
X106300990Y-108624687D02*
X106443847Y-108624687D01*
X106443847Y-108624687D02*
X106634323Y-108672306D01*
X106634323Y-108672306D02*
X106729561Y-108719925D01*
X106729561Y-108719925D02*
X106824800Y-108815163D01*
X106824800Y-108815163D02*
X106872419Y-108958020D01*
X106872419Y-108958020D02*
X106872419Y-109196115D01*
X106824800Y-107481829D02*
X106872419Y-107338972D01*
X106872419Y-107338972D02*
X106872419Y-107100877D01*
X106872419Y-107100877D02*
X106824800Y-107005639D01*
X106824800Y-107005639D02*
X106777180Y-106958020D01*
X106777180Y-106958020D02*
X106681942Y-106910401D01*
X106681942Y-106910401D02*
X106586704Y-106910401D01*
X106586704Y-106910401D02*
X106491466Y-106958020D01*
X106491466Y-106958020D02*
X106443847Y-107005639D01*
X106443847Y-107005639D02*
X106396228Y-107100877D01*
X106396228Y-107100877D02*
X106348609Y-107291353D01*
X106348609Y-107291353D02*
X106300990Y-107386591D01*
X106300990Y-107386591D02*
X106253371Y-107434210D01*
X106253371Y-107434210D02*
X106158133Y-107481829D01*
X106158133Y-107481829D02*
X106062895Y-107481829D01*
X106062895Y-107481829D02*
X105967657Y-107434210D01*
X105967657Y-107434210D02*
X105920038Y-107386591D01*
X105920038Y-107386591D02*
X105872419Y-107291353D01*
X105872419Y-107291353D02*
X105872419Y-107053258D01*
X105872419Y-107053258D02*
X105920038Y-106910401D01*
X105920038Y-105196115D02*
X105872419Y-105291353D01*
X105872419Y-105291353D02*
X105872419Y-105434210D01*
X105872419Y-105434210D02*
X105920038Y-105577067D01*
X105920038Y-105577067D02*
X106015276Y-105672305D01*
X106015276Y-105672305D02*
X106110514Y-105719924D01*
X106110514Y-105719924D02*
X106300990Y-105767543D01*
X106300990Y-105767543D02*
X106443847Y-105767543D01*
X106443847Y-105767543D02*
X106634323Y-105719924D01*
X106634323Y-105719924D02*
X106729561Y-105672305D01*
X106729561Y-105672305D02*
X106824800Y-105577067D01*
X106824800Y-105577067D02*
X106872419Y-105434210D01*
X106872419Y-105434210D02*
X106872419Y-105338972D01*
X106872419Y-105338972D02*
X106824800Y-105196115D01*
X106824800Y-105196115D02*
X106777180Y-105148496D01*
X106777180Y-105148496D02*
X106443847Y-105148496D01*
X106443847Y-105148496D02*
X106443847Y-105338972D01*
D11*
X124632390Y-113291792D02*
X124594295Y-113367982D01*
X124594295Y-113367982D02*
X124594295Y-113482268D01*
X124594295Y-113482268D02*
X124632390Y-113596554D01*
X124632390Y-113596554D02*
X124708580Y-113672744D01*
X124708580Y-113672744D02*
X124784771Y-113710839D01*
X124784771Y-113710839D02*
X124937152Y-113748935D01*
X124937152Y-113748935D02*
X125051438Y-113748935D01*
X125051438Y-113748935D02*
X125203819Y-113710839D01*
X125203819Y-113710839D02*
X125280009Y-113672744D01*
X125280009Y-113672744D02*
X125356200Y-113596554D01*
X125356200Y-113596554D02*
X125394295Y-113482268D01*
X125394295Y-113482268D02*
X125394295Y-113406077D01*
X125394295Y-113406077D02*
X125356200Y-113291792D01*
X125356200Y-113291792D02*
X125318104Y-113253696D01*
X125318104Y-113253696D02*
X125051438Y-113253696D01*
X125051438Y-113253696D02*
X125051438Y-113406077D01*
X125394295Y-112910839D02*
X124594295Y-112910839D01*
X124594295Y-112910839D02*
X125394295Y-112453696D01*
X125394295Y-112453696D02*
X124594295Y-112453696D01*
X125394295Y-112072744D02*
X124594295Y-112072744D01*
X124594295Y-112072744D02*
X124594295Y-111882268D01*
X124594295Y-111882268D02*
X124632390Y-111767982D01*
X124632390Y-111767982D02*
X124708580Y-111691792D01*
X124708580Y-111691792D02*
X124784771Y-111653697D01*
X124784771Y-111653697D02*
X124937152Y-111615601D01*
X124937152Y-111615601D02*
X125051438Y-111615601D01*
X125051438Y-111615601D02*
X125203819Y-111653697D01*
X125203819Y-111653697D02*
X125280009Y-111691792D01*
X125280009Y-111691792D02*
X125356200Y-111767982D01*
X125356200Y-111767982D02*
X125394295Y-111882268D01*
X125394295Y-111882268D02*
X125394295Y-112072744D01*
X124594295Y-116325125D02*
X125394295Y-116058458D01*
X125394295Y-116058458D02*
X124594295Y-115791792D01*
X125318104Y-115067982D02*
X125356200Y-115106078D01*
X125356200Y-115106078D02*
X125394295Y-115220363D01*
X125394295Y-115220363D02*
X125394295Y-115296554D01*
X125394295Y-115296554D02*
X125356200Y-115410840D01*
X125356200Y-115410840D02*
X125280009Y-115487030D01*
X125280009Y-115487030D02*
X125203819Y-115525125D01*
X125203819Y-115525125D02*
X125051438Y-115563221D01*
X125051438Y-115563221D02*
X124937152Y-115563221D01*
X124937152Y-115563221D02*
X124784771Y-115525125D01*
X124784771Y-115525125D02*
X124708580Y-115487030D01*
X124708580Y-115487030D02*
X124632390Y-115410840D01*
X124632390Y-115410840D02*
X124594295Y-115296554D01*
X124594295Y-115296554D02*
X124594295Y-115220363D01*
X124594295Y-115220363D02*
X124632390Y-115106078D01*
X124632390Y-115106078D02*
X124670485Y-115067982D01*
X125318104Y-114267982D02*
X125356200Y-114306078D01*
X125356200Y-114306078D02*
X125394295Y-114420363D01*
X125394295Y-114420363D02*
X125394295Y-114496554D01*
X125394295Y-114496554D02*
X125356200Y-114610840D01*
X125356200Y-114610840D02*
X125280009Y-114687030D01*
X125280009Y-114687030D02*
X125203819Y-114725125D01*
X125203819Y-114725125D02*
X125051438Y-114763221D01*
X125051438Y-114763221D02*
X124937152Y-114763221D01*
X124937152Y-114763221D02*
X124784771Y-114725125D01*
X124784771Y-114725125D02*
X124708580Y-114687030D01*
X124708580Y-114687030D02*
X124632390Y-114610840D01*
X124632390Y-114610840D02*
X124594295Y-114496554D01*
X124594295Y-114496554D02*
X124594295Y-114420363D01*
X124594295Y-114420363D02*
X124632390Y-114306078D01*
X124632390Y-114306078D02*
X124670485Y-114267982D01*
X110175595Y-119104819D02*
X110175595Y-119914342D01*
X110175595Y-119914342D02*
X110223214Y-120009580D01*
X110223214Y-120009580D02*
X110270833Y-120057200D01*
X110270833Y-120057200D02*
X110366071Y-120104819D01*
X110366071Y-120104819D02*
X110556547Y-120104819D01*
X110556547Y-120104819D02*
X110651785Y-120057200D01*
X110651785Y-120057200D02*
X110699404Y-120009580D01*
X110699404Y-120009580D02*
X110747023Y-119914342D01*
X110747023Y-119914342D02*
X110747023Y-119104819D01*
X111175595Y-119200057D02*
X111223214Y-119152438D01*
X111223214Y-119152438D02*
X111318452Y-119104819D01*
X111318452Y-119104819D02*
X111556547Y-119104819D01*
X111556547Y-119104819D02*
X111651785Y-119152438D01*
X111651785Y-119152438D02*
X111699404Y-119200057D01*
X111699404Y-119200057D02*
X111747023Y-119295295D01*
X111747023Y-119295295D02*
X111747023Y-119390533D01*
X111747023Y-119390533D02*
X111699404Y-119533390D01*
X111699404Y-119533390D02*
X111127976Y-120104819D01*
X111127976Y-120104819D02*
X111747023Y-120104819D01*
X107842262Y-124619104D02*
X108318452Y-124619104D01*
X107747024Y-124904819D02*
X108080357Y-123904819D01*
X108080357Y-123904819D02*
X108413690Y-124904819D01*
X108937500Y-123904819D02*
X109127976Y-123904819D01*
X109127976Y-123904819D02*
X109223214Y-123952438D01*
X109223214Y-123952438D02*
X109318452Y-124047676D01*
X109318452Y-124047676D02*
X109366071Y-124238152D01*
X109366071Y-124238152D02*
X109366071Y-124571485D01*
X109366071Y-124571485D02*
X109318452Y-124761961D01*
X109318452Y-124761961D02*
X109223214Y-124857200D01*
X109223214Y-124857200D02*
X109127976Y-124904819D01*
X109127976Y-124904819D02*
X108937500Y-124904819D01*
X108937500Y-124904819D02*
X108842262Y-124857200D01*
X108842262Y-124857200D02*
X108747024Y-124761961D01*
X108747024Y-124761961D02*
X108699405Y-124571485D01*
X108699405Y-124571485D02*
X108699405Y-124238152D01*
X108699405Y-124238152D02*
X108747024Y-124047676D01*
X108747024Y-124047676D02*
X108842262Y-123952438D01*
X108842262Y-123952438D02*
X108937500Y-123904819D01*
X109699405Y-123904819D02*
X110318452Y-123904819D01*
X110318452Y-123904819D02*
X109985119Y-124285771D01*
X109985119Y-124285771D02*
X110127976Y-124285771D01*
X110127976Y-124285771D02*
X110223214Y-124333390D01*
X110223214Y-124333390D02*
X110270833Y-124381009D01*
X110270833Y-124381009D02*
X110318452Y-124476247D01*
X110318452Y-124476247D02*
X110318452Y-124714342D01*
X110318452Y-124714342D02*
X110270833Y-124809580D01*
X110270833Y-124809580D02*
X110223214Y-124857200D01*
X110223214Y-124857200D02*
X110127976Y-124904819D01*
X110127976Y-124904819D02*
X109842262Y-124904819D01*
X109842262Y-124904819D02*
X109747024Y-124857200D01*
X109747024Y-124857200D02*
X109699405Y-124809580D01*
X111175595Y-124238152D02*
X111175595Y-124904819D01*
X110937500Y-123857200D02*
X110699405Y-124571485D01*
X110699405Y-124571485D02*
X111318452Y-124571485D01*
X111889881Y-123904819D02*
X111985119Y-123904819D01*
X111985119Y-123904819D02*
X112080357Y-123952438D01*
X112080357Y-123952438D02*
X112127976Y-124000057D01*
X112127976Y-124000057D02*
X112175595Y-124095295D01*
X112175595Y-124095295D02*
X112223214Y-124285771D01*
X112223214Y-124285771D02*
X112223214Y-124523866D01*
X112223214Y-124523866D02*
X112175595Y-124714342D01*
X112175595Y-124714342D02*
X112127976Y-124809580D01*
X112127976Y-124809580D02*
X112080357Y-124857200D01*
X112080357Y-124857200D02*
X111985119Y-124904819D01*
X111985119Y-124904819D02*
X111889881Y-124904819D01*
X111889881Y-124904819D02*
X111794643Y-124857200D01*
X111794643Y-124857200D02*
X111747024Y-124809580D01*
X111747024Y-124809580D02*
X111699405Y-124714342D01*
X111699405Y-124714342D02*
X111651786Y-124523866D01*
X111651786Y-124523866D02*
X111651786Y-124285771D01*
X111651786Y-124285771D02*
X111699405Y-124095295D01*
X111699405Y-124095295D02*
X111747024Y-124000057D01*
X111747024Y-124000057D02*
X111794643Y-123952438D01*
X111794643Y-123952438D02*
X111889881Y-123904819D01*
X113175595Y-124904819D02*
X112604167Y-124904819D01*
X112889881Y-124904819D02*
X112889881Y-123904819D01*
X112889881Y-123904819D02*
X112794643Y-124047676D01*
X112794643Y-124047676D02*
X112699405Y-124142914D01*
X112699405Y-124142914D02*
X112604167Y-124190533D01*
X113556548Y-124619104D02*
X114032738Y-124619104D01*
X113461310Y-124904819D02*
X113794643Y-123904819D01*
X113794643Y-123904819D02*
X114127976Y-124904819D01*
X104504819Y-109928571D02*
X105314342Y-109928571D01*
X105314342Y-109928571D02*
X105409580Y-109880952D01*
X105409580Y-109880952D02*
X105457200Y-109833333D01*
X105457200Y-109833333D02*
X105504819Y-109738095D01*
X105504819Y-109738095D02*
X105504819Y-109547619D01*
X105504819Y-109547619D02*
X105457200Y-109452381D01*
X105457200Y-109452381D02*
X105409580Y-109404762D01*
X105409580Y-109404762D02*
X105314342Y-109357143D01*
X105314342Y-109357143D02*
X104504819Y-109357143D01*
X105504819Y-108357143D02*
X105504819Y-108928571D01*
X105504819Y-108642857D02*
X104504819Y-108642857D01*
X104504819Y-108642857D02*
X104647676Y-108738095D01*
X104647676Y-108738095D02*
X104742914Y-108833333D01*
X104742914Y-108833333D02*
X104790533Y-108928571D01*
X105457200Y-106738095D02*
X105504819Y-106833333D01*
X105504819Y-106833333D02*
X105504819Y-107023809D01*
X105504819Y-107023809D02*
X105457200Y-107119047D01*
X105457200Y-107119047D02*
X105409580Y-107166666D01*
X105409580Y-107166666D02*
X105314342Y-107214285D01*
X105314342Y-107214285D02*
X105028628Y-107214285D01*
X105028628Y-107214285D02*
X104933390Y-107166666D01*
X104933390Y-107166666D02*
X104885771Y-107119047D01*
X104885771Y-107119047D02*
X104838152Y-107023809D01*
X104838152Y-107023809D02*
X104838152Y-106833333D01*
X104838152Y-106833333D02*
X104885771Y-106738095D01*
X105504819Y-106166666D02*
X105457200Y-106261904D01*
X105457200Y-106261904D02*
X105409580Y-106309523D01*
X105409580Y-106309523D02*
X105314342Y-106357142D01*
X105314342Y-106357142D02*
X105028628Y-106357142D01*
X105028628Y-106357142D02*
X104933390Y-106309523D01*
X104933390Y-106309523D02*
X104885771Y-106261904D01*
X104885771Y-106261904D02*
X104838152Y-106166666D01*
X104838152Y-106166666D02*
X104838152Y-106023809D01*
X104838152Y-106023809D02*
X104885771Y-105928571D01*
X104885771Y-105928571D02*
X104933390Y-105880952D01*
X104933390Y-105880952D02*
X105028628Y-105833333D01*
X105028628Y-105833333D02*
X105314342Y-105833333D01*
X105314342Y-105833333D02*
X105409580Y-105880952D01*
X105409580Y-105880952D02*
X105457200Y-105928571D01*
X105457200Y-105928571D02*
X105504819Y-106023809D01*
X105504819Y-106023809D02*
X105504819Y-106166666D01*
X104838152Y-105404761D02*
X105504819Y-105404761D01*
X104933390Y-105404761D02*
X104885771Y-105357142D01*
X104885771Y-105357142D02*
X104838152Y-105261904D01*
X104838152Y-105261904D02*
X104838152Y-105119047D01*
X104838152Y-105119047D02*
X104885771Y-105023809D01*
X104885771Y-105023809D02*
X104981009Y-104976190D01*
X104981009Y-104976190D02*
X105504819Y-104976190D01*
X104838152Y-104499999D02*
X105504819Y-104499999D01*
X104933390Y-104499999D02*
X104885771Y-104452380D01*
X104885771Y-104452380D02*
X104838152Y-104357142D01*
X104838152Y-104357142D02*
X104838152Y-104214285D01*
X104838152Y-104214285D02*
X104885771Y-104119047D01*
X104885771Y-104119047D02*
X104981009Y-104071428D01*
X104981009Y-104071428D02*
X105504819Y-104071428D01*
X104504819Y-125428571D02*
X105314342Y-125428571D01*
X105314342Y-125428571D02*
X105409580Y-125380952D01*
X105409580Y-125380952D02*
X105457200Y-125333333D01*
X105457200Y-125333333D02*
X105504819Y-125238095D01*
X105504819Y-125238095D02*
X105504819Y-125047619D01*
X105504819Y-125047619D02*
X105457200Y-124952381D01*
X105457200Y-124952381D02*
X105409580Y-124904762D01*
X105409580Y-124904762D02*
X105314342Y-124857143D01*
X105314342Y-124857143D02*
X104504819Y-124857143D01*
X104600057Y-124428571D02*
X104552438Y-124380952D01*
X104552438Y-124380952D02*
X104504819Y-124285714D01*
X104504819Y-124285714D02*
X104504819Y-124047619D01*
X104504819Y-124047619D02*
X104552438Y-123952381D01*
X104552438Y-123952381D02*
X104600057Y-123904762D01*
X104600057Y-123904762D02*
X104695295Y-123857143D01*
X104695295Y-123857143D02*
X104790533Y-123857143D01*
X104790533Y-123857143D02*
X104933390Y-123904762D01*
X104933390Y-123904762D02*
X105504819Y-124476190D01*
X105504819Y-124476190D02*
X105504819Y-123857143D01*
X105457200Y-122238095D02*
X105504819Y-122333333D01*
X105504819Y-122333333D02*
X105504819Y-122523809D01*
X105504819Y-122523809D02*
X105457200Y-122619047D01*
X105457200Y-122619047D02*
X105409580Y-122666666D01*
X105409580Y-122666666D02*
X105314342Y-122714285D01*
X105314342Y-122714285D02*
X105028628Y-122714285D01*
X105028628Y-122714285D02*
X104933390Y-122666666D01*
X104933390Y-122666666D02*
X104885771Y-122619047D01*
X104885771Y-122619047D02*
X104838152Y-122523809D01*
X104838152Y-122523809D02*
X104838152Y-122333333D01*
X104838152Y-122333333D02*
X104885771Y-122238095D01*
X105504819Y-121666666D02*
X105457200Y-121761904D01*
X105457200Y-121761904D02*
X105409580Y-121809523D01*
X105409580Y-121809523D02*
X105314342Y-121857142D01*
X105314342Y-121857142D02*
X105028628Y-121857142D01*
X105028628Y-121857142D02*
X104933390Y-121809523D01*
X104933390Y-121809523D02*
X104885771Y-121761904D01*
X104885771Y-121761904D02*
X104838152Y-121666666D01*
X104838152Y-121666666D02*
X104838152Y-121523809D01*
X104838152Y-121523809D02*
X104885771Y-121428571D01*
X104885771Y-121428571D02*
X104933390Y-121380952D01*
X104933390Y-121380952D02*
X105028628Y-121333333D01*
X105028628Y-121333333D02*
X105314342Y-121333333D01*
X105314342Y-121333333D02*
X105409580Y-121380952D01*
X105409580Y-121380952D02*
X105457200Y-121428571D01*
X105457200Y-121428571D02*
X105504819Y-121523809D01*
X105504819Y-121523809D02*
X105504819Y-121666666D01*
X104838152Y-120904761D02*
X105504819Y-120904761D01*
X104933390Y-120904761D02*
X104885771Y-120857142D01*
X104885771Y-120857142D02*
X104838152Y-120761904D01*
X104838152Y-120761904D02*
X104838152Y-120619047D01*
X104838152Y-120619047D02*
X104885771Y-120523809D01*
X104885771Y-120523809D02*
X104981009Y-120476190D01*
X104981009Y-120476190D02*
X105504819Y-120476190D01*
X104838152Y-119999999D02*
X105504819Y-119999999D01*
X104933390Y-119999999D02*
X104885771Y-119952380D01*
X104885771Y-119952380D02*
X104838152Y-119857142D01*
X104838152Y-119857142D02*
X104838152Y-119714285D01*
X104838152Y-119714285D02*
X104885771Y-119619047D01*
X104885771Y-119619047D02*
X104981009Y-119571428D01*
X104981009Y-119571428D02*
X105504819Y-119571428D01*
X109784819Y-114166666D02*
X109308628Y-114499999D01*
X109784819Y-114738094D02*
X108784819Y-114738094D01*
X108784819Y-114738094D02*
X108784819Y-114357142D01*
X108784819Y-114357142D02*
X108832438Y-114261904D01*
X108832438Y-114261904D02*
X108880057Y-114214285D01*
X108880057Y-114214285D02*
X108975295Y-114166666D01*
X108975295Y-114166666D02*
X109118152Y-114166666D01*
X109118152Y-114166666D02*
X109213390Y-114214285D01*
X109213390Y-114214285D02*
X109261009Y-114261904D01*
X109261009Y-114261904D02*
X109308628Y-114357142D01*
X109308628Y-114357142D02*
X109308628Y-114738094D01*
X108784819Y-113261904D02*
X108784819Y-113738094D01*
X108784819Y-113738094D02*
X109261009Y-113785713D01*
X109261009Y-113785713D02*
X109213390Y-113738094D01*
X109213390Y-113738094D02*
X109165771Y-113642856D01*
X109165771Y-113642856D02*
X109165771Y-113404761D01*
X109165771Y-113404761D02*
X109213390Y-113309523D01*
X109213390Y-113309523D02*
X109261009Y-113261904D01*
X109261009Y-113261904D02*
X109356247Y-113214285D01*
X109356247Y-113214285D02*
X109594342Y-113214285D01*
X109594342Y-113214285D02*
X109689580Y-113261904D01*
X109689580Y-113261904D02*
X109737200Y-113309523D01*
X109737200Y-113309523D02*
X109784819Y-113404761D01*
X109784819Y-113404761D02*
X109784819Y-113642856D01*
X109784819Y-113642856D02*
X109737200Y-113738094D01*
X109737200Y-113738094D02*
X109689580Y-113785713D01*
X106124819Y-114119047D02*
X106124819Y-114690475D01*
X106124819Y-114404761D02*
X105124819Y-114404761D01*
X105124819Y-114404761D02*
X105267676Y-114499999D01*
X105267676Y-114499999D02*
X105362914Y-114595237D01*
X105362914Y-114595237D02*
X105410533Y-114690475D01*
X106124819Y-113690475D02*
X105124819Y-113690475D01*
X105743866Y-113595237D02*
X106124819Y-113309523D01*
X105458152Y-113309523D02*
X105839104Y-113690475D01*
X110761905Y-114454819D02*
X110761905Y-113454819D01*
X110761905Y-113454819D02*
X111000000Y-113454819D01*
X111000000Y-113454819D02*
X111142857Y-113502438D01*
X111142857Y-113502438D02*
X111238095Y-113597676D01*
X111238095Y-113597676D02*
X111285714Y-113692914D01*
X111285714Y-113692914D02*
X111333333Y-113883390D01*
X111333333Y-113883390D02*
X111333333Y-114026247D01*
X111333333Y-114026247D02*
X111285714Y-114216723D01*
X111285714Y-114216723D02*
X111238095Y-114311961D01*
X111238095Y-114311961D02*
X111142857Y-114407200D01*
X111142857Y-114407200D02*
X111000000Y-114454819D01*
X111000000Y-114454819D02*
X110761905Y-114454819D01*
X112285714Y-114454819D02*
X111714286Y-114454819D01*
X112000000Y-114454819D02*
X112000000Y-113454819D01*
X112000000Y-113454819D02*
X111904762Y-113597676D01*
X111904762Y-113597676D02*
X111809524Y-113692914D01*
X111809524Y-113692914D02*
X111714286Y-113740533D01*
X119357142Y-114454819D02*
X118880952Y-114454819D01*
X118880952Y-114454819D02*
X118880952Y-113454819D01*
X119690476Y-113931009D02*
X120023809Y-113931009D01*
X120166666Y-114454819D02*
X119690476Y-114454819D01*
X119690476Y-114454819D02*
X119690476Y-113454819D01*
X119690476Y-113454819D02*
X120166666Y-113454819D01*
X120595238Y-114454819D02*
X120595238Y-113454819D01*
X120595238Y-113454819D02*
X120833333Y-113454819D01*
X120833333Y-113454819D02*
X120976190Y-113502438D01*
X120976190Y-113502438D02*
X121071428Y-113597676D01*
X121071428Y-113597676D02*
X121119047Y-113692914D01*
X121119047Y-113692914D02*
X121166666Y-113883390D01*
X121166666Y-113883390D02*
X121166666Y-114026247D01*
X121166666Y-114026247D02*
X121119047Y-114216723D01*
X121119047Y-114216723D02*
X121071428Y-114311961D01*
X121071428Y-114311961D02*
X120976190Y-114407200D01*
X120976190Y-114407200D02*
X120833333Y-114454819D01*
X120833333Y-114454819D02*
X120595238Y-114454819D01*
X117533333Y-117604819D02*
X117200000Y-117128628D01*
X116961905Y-117604819D02*
X116961905Y-116604819D01*
X116961905Y-116604819D02*
X117342857Y-116604819D01*
X117342857Y-116604819D02*
X117438095Y-116652438D01*
X117438095Y-116652438D02*
X117485714Y-116700057D01*
X117485714Y-116700057D02*
X117533333Y-116795295D01*
X117533333Y-116795295D02*
X117533333Y-116938152D01*
X117533333Y-116938152D02*
X117485714Y-117033390D01*
X117485714Y-117033390D02*
X117438095Y-117081009D01*
X117438095Y-117081009D02*
X117342857Y-117128628D01*
X117342857Y-117128628D02*
X116961905Y-117128628D01*
X117866667Y-116604819D02*
X118485714Y-116604819D01*
X118485714Y-116604819D02*
X118152381Y-116985771D01*
X118152381Y-116985771D02*
X118295238Y-116985771D01*
X118295238Y-116985771D02*
X118390476Y-117033390D01*
X118390476Y-117033390D02*
X118438095Y-117081009D01*
X118438095Y-117081009D02*
X118485714Y-117176247D01*
X118485714Y-117176247D02*
X118485714Y-117414342D01*
X118485714Y-117414342D02*
X118438095Y-117509580D01*
X118438095Y-117509580D02*
X118390476Y-117557200D01*
X118390476Y-117557200D02*
X118295238Y-117604819D01*
X118295238Y-117604819D02*
X118009524Y-117604819D01*
X118009524Y-117604819D02*
X117914286Y-117557200D01*
X117914286Y-117557200D02*
X117866667Y-117509580D01*
X117502381Y-120284819D02*
X117597619Y-120284819D01*
X117597619Y-120284819D02*
X117692857Y-120332438D01*
X117692857Y-120332438D02*
X117740476Y-120380057D01*
X117740476Y-120380057D02*
X117788095Y-120475295D01*
X117788095Y-120475295D02*
X117835714Y-120665771D01*
X117835714Y-120665771D02*
X117835714Y-120903866D01*
X117835714Y-120903866D02*
X117788095Y-121094342D01*
X117788095Y-121094342D02*
X117740476Y-121189580D01*
X117740476Y-121189580D02*
X117692857Y-121237200D01*
X117692857Y-121237200D02*
X117597619Y-121284819D01*
X117597619Y-121284819D02*
X117502381Y-121284819D01*
X117502381Y-121284819D02*
X117407143Y-121237200D01*
X117407143Y-121237200D02*
X117359524Y-121189580D01*
X117359524Y-121189580D02*
X117311905Y-121094342D01*
X117311905Y-121094342D02*
X117264286Y-120903866D01*
X117264286Y-120903866D02*
X117264286Y-120665771D01*
X117264286Y-120665771D02*
X117311905Y-120475295D01*
X117311905Y-120475295D02*
X117359524Y-120380057D01*
X117359524Y-120380057D02*
X117407143Y-120332438D01*
X117407143Y-120332438D02*
X117502381Y-120284819D01*
X117383333Y-107624819D02*
X117050000Y-107148628D01*
X116811905Y-107624819D02*
X116811905Y-106624819D01*
X116811905Y-106624819D02*
X117192857Y-106624819D01*
X117192857Y-106624819D02*
X117288095Y-106672438D01*
X117288095Y-106672438D02*
X117335714Y-106720057D01*
X117335714Y-106720057D02*
X117383333Y-106815295D01*
X117383333Y-106815295D02*
X117383333Y-106958152D01*
X117383333Y-106958152D02*
X117335714Y-107053390D01*
X117335714Y-107053390D02*
X117288095Y-107101009D01*
X117288095Y-107101009D02*
X117192857Y-107148628D01*
X117192857Y-107148628D02*
X116811905Y-107148628D01*
X117764286Y-106720057D02*
X117811905Y-106672438D01*
X117811905Y-106672438D02*
X117907143Y-106624819D01*
X117907143Y-106624819D02*
X118145238Y-106624819D01*
X118145238Y-106624819D02*
X118240476Y-106672438D01*
X118240476Y-106672438D02*
X118288095Y-106720057D01*
X118288095Y-106720057D02*
X118335714Y-106815295D01*
X118335714Y-106815295D02*
X118335714Y-106910533D01*
X118335714Y-106910533D02*
X118288095Y-107053390D01*
X118288095Y-107053390D02*
X117716667Y-107624819D01*
X117716667Y-107624819D02*
X118335714Y-107624819D01*
X116478571Y-111284819D02*
X115907143Y-111284819D01*
X116192857Y-111284819D02*
X116192857Y-110284819D01*
X116192857Y-110284819D02*
X116097619Y-110427676D01*
X116097619Y-110427676D02*
X116002381Y-110522914D01*
X116002381Y-110522914D02*
X115907143Y-110570533D01*
X117097619Y-110284819D02*
X117192857Y-110284819D01*
X117192857Y-110284819D02*
X117288095Y-110332438D01*
X117288095Y-110332438D02*
X117335714Y-110380057D01*
X117335714Y-110380057D02*
X117383333Y-110475295D01*
X117383333Y-110475295D02*
X117430952Y-110665771D01*
X117430952Y-110665771D02*
X117430952Y-110903866D01*
X117430952Y-110903866D02*
X117383333Y-111094342D01*
X117383333Y-111094342D02*
X117335714Y-111189580D01*
X117335714Y-111189580D02*
X117288095Y-111237200D01*
X117288095Y-111237200D02*
X117192857Y-111284819D01*
X117192857Y-111284819D02*
X117097619Y-111284819D01*
X117097619Y-111284819D02*
X117002381Y-111237200D01*
X117002381Y-111237200D02*
X116954762Y-111189580D01*
X116954762Y-111189580D02*
X116907143Y-111094342D01*
X116907143Y-111094342D02*
X116859524Y-110903866D01*
X116859524Y-110903866D02*
X116859524Y-110665771D01*
X116859524Y-110665771D02*
X116907143Y-110475295D01*
X116907143Y-110475295D02*
X116954762Y-110380057D01*
X116954762Y-110380057D02*
X117002381Y-110332438D01*
X117002381Y-110332438D02*
X117097619Y-110284819D01*
X118050000Y-110284819D02*
X118145238Y-110284819D01*
X118145238Y-110284819D02*
X118240476Y-110332438D01*
X118240476Y-110332438D02*
X118288095Y-110380057D01*
X118288095Y-110380057D02*
X118335714Y-110475295D01*
X118335714Y-110475295D02*
X118383333Y-110665771D01*
X118383333Y-110665771D02*
X118383333Y-110903866D01*
X118383333Y-110903866D02*
X118335714Y-111094342D01*
X118335714Y-111094342D02*
X118288095Y-111189580D01*
X118288095Y-111189580D02*
X118240476Y-111237200D01*
X118240476Y-111237200D02*
X118145238Y-111284819D01*
X118145238Y-111284819D02*
X118050000Y-111284819D01*
X118050000Y-111284819D02*
X117954762Y-111237200D01*
X117954762Y-111237200D02*
X117907143Y-111189580D01*
X117907143Y-111189580D02*
X117859524Y-111094342D01*
X117859524Y-111094342D02*
X117811905Y-110903866D01*
X117811905Y-110903866D02*
X117811905Y-110665771D01*
X117811905Y-110665771D02*
X117859524Y-110475295D01*
X117859524Y-110475295D02*
X117907143Y-110380057D01*
X117907143Y-110380057D02*
X117954762Y-110332438D01*
X117954762Y-110332438D02*
X118050000Y-110284819D01*
X118811905Y-111284819D02*
X118811905Y-110284819D01*
X118907143Y-110903866D02*
X119192857Y-111284819D01*
X119192857Y-110618152D02*
X118811905Y-110999104D01*
X110175595Y-103504819D02*
X110175595Y-104314342D01*
X110175595Y-104314342D02*
X110223214Y-104409580D01*
X110223214Y-104409580D02*
X110270833Y-104457200D01*
X110270833Y-104457200D02*
X110366071Y-104504819D01*
X110366071Y-104504819D02*
X110556547Y-104504819D01*
X110556547Y-104504819D02*
X110651785Y-104457200D01*
X110651785Y-104457200D02*
X110699404Y-104409580D01*
X110699404Y-104409580D02*
X110747023Y-104314342D01*
X110747023Y-104314342D02*
X110747023Y-103504819D01*
X111747023Y-104504819D02*
X111175595Y-104504819D01*
X111461309Y-104504819D02*
X111461309Y-103504819D01*
X111461309Y-103504819D02*
X111366071Y-103647676D01*
X111366071Y-103647676D02*
X111270833Y-103742914D01*
X111270833Y-103742914D02*
X111175595Y-103790533D01*
X107842262Y-109019104D02*
X108318452Y-109019104D01*
X107747024Y-109304819D02*
X108080357Y-108304819D01*
X108080357Y-108304819D02*
X108413690Y-109304819D01*
X108937500Y-108304819D02*
X109127976Y-108304819D01*
X109127976Y-108304819D02*
X109223214Y-108352438D01*
X109223214Y-108352438D02*
X109318452Y-108447676D01*
X109318452Y-108447676D02*
X109366071Y-108638152D01*
X109366071Y-108638152D02*
X109366071Y-108971485D01*
X109366071Y-108971485D02*
X109318452Y-109161961D01*
X109318452Y-109161961D02*
X109223214Y-109257200D01*
X109223214Y-109257200D02*
X109127976Y-109304819D01*
X109127976Y-109304819D02*
X108937500Y-109304819D01*
X108937500Y-109304819D02*
X108842262Y-109257200D01*
X108842262Y-109257200D02*
X108747024Y-109161961D01*
X108747024Y-109161961D02*
X108699405Y-108971485D01*
X108699405Y-108971485D02*
X108699405Y-108638152D01*
X108699405Y-108638152D02*
X108747024Y-108447676D01*
X108747024Y-108447676D02*
X108842262Y-108352438D01*
X108842262Y-108352438D02*
X108937500Y-108304819D01*
X109699405Y-108304819D02*
X110318452Y-108304819D01*
X110318452Y-108304819D02*
X109985119Y-108685771D01*
X109985119Y-108685771D02*
X110127976Y-108685771D01*
X110127976Y-108685771D02*
X110223214Y-108733390D01*
X110223214Y-108733390D02*
X110270833Y-108781009D01*
X110270833Y-108781009D02*
X110318452Y-108876247D01*
X110318452Y-108876247D02*
X110318452Y-109114342D01*
X110318452Y-109114342D02*
X110270833Y-109209580D01*
X110270833Y-109209580D02*
X110223214Y-109257200D01*
X110223214Y-109257200D02*
X110127976Y-109304819D01*
X110127976Y-109304819D02*
X109842262Y-109304819D01*
X109842262Y-109304819D02*
X109747024Y-109257200D01*
X109747024Y-109257200D02*
X109699405Y-109209580D01*
X111175595Y-108638152D02*
X111175595Y-109304819D01*
X110937500Y-108257200D02*
X110699405Y-108971485D01*
X110699405Y-108971485D02*
X111318452Y-108971485D01*
X111889881Y-108304819D02*
X111985119Y-108304819D01*
X111985119Y-108304819D02*
X112080357Y-108352438D01*
X112080357Y-108352438D02*
X112127976Y-108400057D01*
X112127976Y-108400057D02*
X112175595Y-108495295D01*
X112175595Y-108495295D02*
X112223214Y-108685771D01*
X112223214Y-108685771D02*
X112223214Y-108923866D01*
X112223214Y-108923866D02*
X112175595Y-109114342D01*
X112175595Y-109114342D02*
X112127976Y-109209580D01*
X112127976Y-109209580D02*
X112080357Y-109257200D01*
X112080357Y-109257200D02*
X111985119Y-109304819D01*
X111985119Y-109304819D02*
X111889881Y-109304819D01*
X111889881Y-109304819D02*
X111794643Y-109257200D01*
X111794643Y-109257200D02*
X111747024Y-109209580D01*
X111747024Y-109209580D02*
X111699405Y-109114342D01*
X111699405Y-109114342D02*
X111651786Y-108923866D01*
X111651786Y-108923866D02*
X111651786Y-108685771D01*
X111651786Y-108685771D02*
X111699405Y-108495295D01*
X111699405Y-108495295D02*
X111747024Y-108400057D01*
X111747024Y-108400057D02*
X111794643Y-108352438D01*
X111794643Y-108352438D02*
X111889881Y-108304819D01*
X112842262Y-108304819D02*
X112937500Y-108304819D01*
X112937500Y-108304819D02*
X113032738Y-108352438D01*
X113032738Y-108352438D02*
X113080357Y-108400057D01*
X113080357Y-108400057D02*
X113127976Y-108495295D01*
X113127976Y-108495295D02*
X113175595Y-108685771D01*
X113175595Y-108685771D02*
X113175595Y-108923866D01*
X113175595Y-108923866D02*
X113127976Y-109114342D01*
X113127976Y-109114342D02*
X113080357Y-109209580D01*
X113080357Y-109209580D02*
X113032738Y-109257200D01*
X113032738Y-109257200D02*
X112937500Y-109304819D01*
X112937500Y-109304819D02*
X112842262Y-109304819D01*
X112842262Y-109304819D02*
X112747024Y-109257200D01*
X112747024Y-109257200D02*
X112699405Y-109209580D01*
X112699405Y-109209580D02*
X112651786Y-109114342D01*
X112651786Y-109114342D02*
X112604167Y-108923866D01*
X112604167Y-108923866D02*
X112604167Y-108685771D01*
X112604167Y-108685771D02*
X112651786Y-108495295D01*
X112651786Y-108495295D02*
X112699405Y-108400057D01*
X112699405Y-108400057D02*
X112747024Y-108352438D01*
X112747024Y-108352438D02*
X112842262Y-108304819D01*
X113556548Y-109019104D02*
X114032738Y-109019104D01*
X113461310Y-109304819D02*
X113794643Y-108304819D01*
X113794643Y-108304819D02*
X114127976Y-109304819D01*
X117383333Y-102124819D02*
X117050000Y-101648628D01*
X116811905Y-102124819D02*
X116811905Y-101124819D01*
X116811905Y-101124819D02*
X117192857Y-101124819D01*
X117192857Y-101124819D02*
X117288095Y-101172438D01*
X117288095Y-101172438D02*
X117335714Y-101220057D01*
X117335714Y-101220057D02*
X117383333Y-101315295D01*
X117383333Y-101315295D02*
X117383333Y-101458152D01*
X117383333Y-101458152D02*
X117335714Y-101553390D01*
X117335714Y-101553390D02*
X117288095Y-101601009D01*
X117288095Y-101601009D02*
X117192857Y-101648628D01*
X117192857Y-101648628D02*
X116811905Y-101648628D01*
X118335714Y-102124819D02*
X117764286Y-102124819D01*
X118050000Y-102124819D02*
X118050000Y-101124819D01*
X118050000Y-101124819D02*
X117954762Y-101267676D01*
X117954762Y-101267676D02*
X117859524Y-101362914D01*
X117859524Y-101362914D02*
X117764286Y-101410533D01*
X117430952Y-105784819D02*
X116859524Y-105784819D01*
X117145238Y-105784819D02*
X117145238Y-104784819D01*
X117145238Y-104784819D02*
X117050000Y-104927676D01*
X117050000Y-104927676D02*
X116954762Y-105022914D01*
X116954762Y-105022914D02*
X116859524Y-105070533D01*
X117859524Y-105784819D02*
X117859524Y-104784819D01*
X117954762Y-105403866D02*
X118240476Y-105784819D01*
X118240476Y-105118152D02*
X117859524Y-105499104D01*
X122316666Y-101154819D02*
X122316666Y-101869104D01*
X122316666Y-101869104D02*
X122269047Y-102011961D01*
X122269047Y-102011961D02*
X122173809Y-102107200D01*
X122173809Y-102107200D02*
X122030952Y-102154819D01*
X122030952Y-102154819D02*
X121935714Y-102154819D01*
X122792857Y-102154819D02*
X122792857Y-101154819D01*
X122792857Y-101154819D02*
X123173809Y-101154819D01*
X123173809Y-101154819D02*
X123269047Y-101202438D01*
X123269047Y-101202438D02*
X123316666Y-101250057D01*
X123316666Y-101250057D02*
X123364285Y-101345295D01*
X123364285Y-101345295D02*
X123364285Y-101488152D01*
X123364285Y-101488152D02*
X123316666Y-101583390D01*
X123316666Y-101583390D02*
X123269047Y-101631009D01*
X123269047Y-101631009D02*
X123173809Y-101678628D01*
X123173809Y-101678628D02*
X122792857Y-101678628D01*
X124316666Y-102154819D02*
X123745238Y-102154819D01*
X124030952Y-102154819D02*
X124030952Y-101154819D01*
X124030952Y-101154819D02*
X123935714Y-101297676D01*
X123935714Y-101297676D02*
X123840476Y-101392914D01*
X123840476Y-101392914D02*
X123745238Y-101440533D01*
X122316666Y-116654819D02*
X122316666Y-117369104D01*
X122316666Y-117369104D02*
X122269047Y-117511961D01*
X122269047Y-117511961D02*
X122173809Y-117607200D01*
X122173809Y-117607200D02*
X122030952Y-117654819D01*
X122030952Y-117654819D02*
X121935714Y-117654819D01*
X122792857Y-117654819D02*
X122792857Y-116654819D01*
X122792857Y-116654819D02*
X123173809Y-116654819D01*
X123173809Y-116654819D02*
X123269047Y-116702438D01*
X123269047Y-116702438D02*
X123316666Y-116750057D01*
X123316666Y-116750057D02*
X123364285Y-116845295D01*
X123364285Y-116845295D02*
X123364285Y-116988152D01*
X123364285Y-116988152D02*
X123316666Y-117083390D01*
X123316666Y-117083390D02*
X123269047Y-117131009D01*
X123269047Y-117131009D02*
X123173809Y-117178628D01*
X123173809Y-117178628D02*
X122792857Y-117178628D01*
X123697619Y-116654819D02*
X124316666Y-116654819D01*
X124316666Y-116654819D02*
X123983333Y-117035771D01*
X123983333Y-117035771D02*
X124126190Y-117035771D01*
X124126190Y-117035771D02*
X124221428Y-117083390D01*
X124221428Y-117083390D02*
X124269047Y-117131009D01*
X124269047Y-117131009D02*
X124316666Y-117226247D01*
X124316666Y-117226247D02*
X124316666Y-117464342D01*
X124316666Y-117464342D02*
X124269047Y-117559580D01*
X124269047Y-117559580D02*
X124221428Y-117607200D01*
X124221428Y-117607200D02*
X124126190Y-117654819D01*
X124126190Y-117654819D02*
X123840476Y-117654819D01*
X123840476Y-117654819D02*
X123745238Y-117607200D01*
X123745238Y-117607200D02*
X123697619Y-117559580D01*
X122216666Y-122654819D02*
X122216666Y-123369104D01*
X122216666Y-123369104D02*
X122169047Y-123511961D01*
X122169047Y-123511961D02*
X122073809Y-123607200D01*
X122073809Y-123607200D02*
X121930952Y-123654819D01*
X121930952Y-123654819D02*
X121835714Y-123654819D01*
X122692857Y-123654819D02*
X122692857Y-122654819D01*
X122692857Y-122654819D02*
X123073809Y-122654819D01*
X123073809Y-122654819D02*
X123169047Y-122702438D01*
X123169047Y-122702438D02*
X123216666Y-122750057D01*
X123216666Y-122750057D02*
X123264285Y-122845295D01*
X123264285Y-122845295D02*
X123264285Y-122988152D01*
X123264285Y-122988152D02*
X123216666Y-123083390D01*
X123216666Y-123083390D02*
X123169047Y-123131009D01*
X123169047Y-123131009D02*
X123073809Y-123178628D01*
X123073809Y-123178628D02*
X122692857Y-123178628D01*
X124121428Y-122988152D02*
X124121428Y-123654819D01*
X123883333Y-122607200D02*
X123645238Y-123321485D01*
X123645238Y-123321485D02*
X124264285Y-123321485D01*
X122316666Y-106654819D02*
X122316666Y-107369104D01*
X122316666Y-107369104D02*
X122269047Y-107511961D01*
X122269047Y-107511961D02*
X122173809Y-107607200D01*
X122173809Y-107607200D02*
X122030952Y-107654819D01*
X122030952Y-107654819D02*
X121935714Y-107654819D01*
X122792857Y-107654819D02*
X122792857Y-106654819D01*
X122792857Y-106654819D02*
X123173809Y-106654819D01*
X123173809Y-106654819D02*
X123269047Y-106702438D01*
X123269047Y-106702438D02*
X123316666Y-106750057D01*
X123316666Y-106750057D02*
X123364285Y-106845295D01*
X123364285Y-106845295D02*
X123364285Y-106988152D01*
X123364285Y-106988152D02*
X123316666Y-107083390D01*
X123316666Y-107083390D02*
X123269047Y-107131009D01*
X123269047Y-107131009D02*
X123173809Y-107178628D01*
X123173809Y-107178628D02*
X122792857Y-107178628D01*
X123745238Y-106750057D02*
X123792857Y-106702438D01*
X123792857Y-106702438D02*
X123888095Y-106654819D01*
X123888095Y-106654819D02*
X124126190Y-106654819D01*
X124126190Y-106654819D02*
X124221428Y-106702438D01*
X124221428Y-106702438D02*
X124269047Y-106750057D01*
X124269047Y-106750057D02*
X124316666Y-106845295D01*
X124316666Y-106845295D02*
X124316666Y-106940533D01*
X124316666Y-106940533D02*
X124269047Y-107083390D01*
X124269047Y-107083390D02*
X123697619Y-107654819D01*
X123697619Y-107654819D02*
X124316666Y-107654819D01*
X117283333Y-123624819D02*
X116950000Y-123148628D01*
X116711905Y-123624819D02*
X116711905Y-122624819D01*
X116711905Y-122624819D02*
X117092857Y-122624819D01*
X117092857Y-122624819D02*
X117188095Y-122672438D01*
X117188095Y-122672438D02*
X117235714Y-122720057D01*
X117235714Y-122720057D02*
X117283333Y-122815295D01*
X117283333Y-122815295D02*
X117283333Y-122958152D01*
X117283333Y-122958152D02*
X117235714Y-123053390D01*
X117235714Y-123053390D02*
X117188095Y-123101009D01*
X117188095Y-123101009D02*
X117092857Y-123148628D01*
X117092857Y-123148628D02*
X116711905Y-123148628D01*
X118140476Y-122958152D02*
X118140476Y-123624819D01*
X117902381Y-122577200D02*
X117664286Y-123291485D01*
X117664286Y-123291485D02*
X118283333Y-123291485D01*
X116854761Y-127284819D02*
X116283333Y-127284819D01*
X116569047Y-127284819D02*
X116569047Y-126284819D01*
X116569047Y-126284819D02*
X116473809Y-126427676D01*
X116473809Y-126427676D02*
X116378571Y-126522914D01*
X116378571Y-126522914D02*
X116283333Y-126570533D01*
X117473809Y-126284819D02*
X117569047Y-126284819D01*
X117569047Y-126284819D02*
X117664285Y-126332438D01*
X117664285Y-126332438D02*
X117711904Y-126380057D01*
X117711904Y-126380057D02*
X117759523Y-126475295D01*
X117759523Y-126475295D02*
X117807142Y-126665771D01*
X117807142Y-126665771D02*
X117807142Y-126903866D01*
X117807142Y-126903866D02*
X117759523Y-127094342D01*
X117759523Y-127094342D02*
X117711904Y-127189580D01*
X117711904Y-127189580D02*
X117664285Y-127237200D01*
X117664285Y-127237200D02*
X117569047Y-127284819D01*
X117569047Y-127284819D02*
X117473809Y-127284819D01*
X117473809Y-127284819D02*
X117378571Y-127237200D01*
X117378571Y-127237200D02*
X117330952Y-127189580D01*
X117330952Y-127189580D02*
X117283333Y-127094342D01*
X117283333Y-127094342D02*
X117235714Y-126903866D01*
X117235714Y-126903866D02*
X117235714Y-126665771D01*
X117235714Y-126665771D02*
X117283333Y-126475295D01*
X117283333Y-126475295D02*
X117330952Y-126380057D01*
X117330952Y-126380057D02*
X117378571Y-126332438D01*
X117378571Y-126332438D02*
X117473809Y-126284819D01*
X118235714Y-127284819D02*
X118235714Y-126284819D01*
X118330952Y-126903866D02*
X118616666Y-127284819D01*
X118616666Y-126618152D02*
X118235714Y-126999104D01*
D12*
%TO.C,U2*%
X109637500Y-121670000D02*
X109877500Y-122000000D01*
X109397500Y-122000000D01*
X109637500Y-121670000D01*
G36*
X109877500Y-122000000D02*
G01*
X109397500Y-122000000D01*
X109637500Y-121670000D01*
X109877500Y-122000000D01*
G37*
X111697500Y-123610000D02*
X110177500Y-123610000D01*
X111697500Y-122610000D02*
X111697500Y-123610000D01*
X111697500Y-120490000D02*
X111697500Y-121490000D01*
X110177500Y-123610000D02*
X110177500Y-123560000D01*
X110177500Y-122440000D02*
X110177500Y-121660000D01*
X110177500Y-120540000D02*
X110177500Y-120490000D01*
X110177500Y-120490000D02*
X111697500Y-120490000D01*
%TO.C,U1 conn*%
X98400000Y-109300000D02*
X100000000Y-109300000D01*
X100000000Y-110300000D01*
X98400000Y-110300000D01*
X98400000Y-109300000D01*
X98400000Y-103700000D02*
X100000000Y-103700000D01*
X100000000Y-104700000D01*
X98400000Y-104700000D01*
X98400000Y-103700000D01*
X96140000Y-111060000D02*
X103960000Y-111060000D01*
X102360000Y-111060000D02*
X102360000Y-110140000D01*
X103960000Y-111060000D02*
X103960000Y-110140000D01*
X102360000Y-110140000D02*
X102360000Y-109860000D01*
X103960000Y-110140000D02*
X102360000Y-110140000D01*
X100500000Y-108500000D02*
X96140000Y-108500000D01*
X96140000Y-105500000D02*
X100500000Y-105500000D01*
X100500000Y-105500000D02*
X100500000Y-108500000D01*
X98400000Y-104700000D02*
X96140000Y-104700000D01*
X98400000Y-104200000D02*
X96140000Y-104200000D01*
X102360000Y-104140000D02*
X103575000Y-104140000D01*
X102360000Y-104140000D02*
X102360000Y-103860000D01*
X102360000Y-103860000D02*
X103960000Y-103860000D01*
X103960000Y-103860000D02*
X103960000Y-102940000D01*
X96140000Y-102940000D02*
X96140000Y-111060000D01*
X102360000Y-102940000D02*
X102360000Y-103860000D01*
X103960000Y-102940000D02*
X96140000Y-102940000D01*
%TO.C,U2 conn*%
X103960000Y-118440000D02*
X96140000Y-118440000D01*
X102360000Y-118440000D02*
X102360000Y-119360000D01*
X96140000Y-118440000D02*
X96140000Y-126560000D01*
X103960000Y-119360000D02*
X103960000Y-118440000D01*
X102360000Y-119360000D02*
X103960000Y-119360000D01*
X102360000Y-119640000D02*
X102360000Y-119360000D01*
X102360000Y-119640000D02*
X103575000Y-119640000D01*
X98400000Y-119700000D02*
X96140000Y-119700000D01*
X98400000Y-120200000D02*
X96140000Y-120200000D01*
X100500000Y-121000000D02*
X100500000Y-124000000D01*
X96140000Y-121000000D02*
X100500000Y-121000000D01*
X100500000Y-124000000D02*
X96140000Y-124000000D01*
X103960000Y-125640000D02*
X102360000Y-125640000D01*
X102360000Y-125640000D02*
X102360000Y-125360000D01*
X103960000Y-126560000D02*
X103960000Y-125640000D01*
X102360000Y-126560000D02*
X102360000Y-125640000D01*
X96140000Y-126560000D02*
X103960000Y-126560000D01*
X98400000Y-119200000D02*
X100000000Y-119200000D01*
X100000000Y-120200000D01*
X98400000Y-120200000D01*
X98400000Y-119200000D01*
X98400000Y-124800000D02*
X100000000Y-124800000D01*
X100000000Y-125800000D01*
X98400000Y-125800000D01*
X98400000Y-124800000D01*
%TO.C,R5*%
X108410000Y-113272936D02*
X108410000Y-114727064D01*
X106590000Y-113272936D02*
X106590000Y-114727064D01*
%TO.C,D1*%
X117100000Y-112865000D02*
X113040000Y-112865000D01*
X113040000Y-115135000D02*
X117100000Y-115135000D01*
X113040000Y-112865000D02*
X113040000Y-115135000D01*
%TO.C,R3*%
X116822936Y-119910000D02*
X118277064Y-119910000D01*
X116822936Y-118090000D02*
X118277064Y-118090000D01*
%TO.C,R2*%
X116822936Y-108090000D02*
X118277064Y-108090000D01*
X116822936Y-109910000D02*
X118277064Y-109910000D01*
%TO.C,U1*%
X110177500Y-104890000D02*
X111697500Y-104890000D01*
X110177500Y-104940000D02*
X110177500Y-104890000D01*
X110177500Y-106840000D02*
X110177500Y-106060000D01*
X110177500Y-108010000D02*
X110177500Y-107960000D01*
X111697500Y-104890000D02*
X111697500Y-105890000D01*
X111697500Y-107010000D02*
X111697500Y-108010000D01*
X111697500Y-108010000D02*
X110177500Y-108010000D01*
X109637500Y-106070000D02*
X109877500Y-106400000D01*
X109397500Y-106400000D01*
X109637500Y-106070000D01*
G36*
X109877500Y-106400000D02*
G01*
X109397500Y-106400000D01*
X109637500Y-106070000D01*
X109877500Y-106400000D01*
G37*
%TO.C,R1*%
X116822936Y-104410000D02*
X118277064Y-104410000D01*
X116822936Y-102590000D02*
X118277064Y-102590000D01*
%TO.C,JP1*%
X124550000Y-103800000D02*
G75*
G02*
X123850000Y-104500000I-700000J0D01*
G01*
X123850000Y-102500000D02*
G75*
G02*
X124550000Y-103200000I0J-700000D01*
G01*
X122450000Y-104500000D02*
G75*
G02*
X121750000Y-103800000I-1J699999D01*
G01*
X121750000Y-103200000D02*
G75*
G02*
X122450000Y-102500000I699999J1D01*
G01*
X124550000Y-103200000D02*
X124550000Y-103800000D01*
X123850000Y-104500000D02*
X122450000Y-104500000D01*
X122450000Y-102500000D02*
X123850000Y-102500000D01*
X121750000Y-103800000D02*
X121750000Y-103200000D01*
%TO.C,JP3*%
X124550000Y-119300000D02*
G75*
G02*
X123850000Y-120000000I-700000J0D01*
G01*
X123850000Y-118000000D02*
G75*
G02*
X124550000Y-118700000I0J-700000D01*
G01*
X122450000Y-120000000D02*
G75*
G02*
X121750000Y-119300000I-1J699999D01*
G01*
X121750000Y-118700000D02*
G75*
G02*
X122450000Y-118000000I699999J1D01*
G01*
X124550000Y-118700000D02*
X124550000Y-119300000D01*
X123850000Y-120000000D02*
X122450000Y-120000000D01*
X122450000Y-118000000D02*
X123850000Y-118000000D01*
X121750000Y-119300000D02*
X121750000Y-118700000D01*
%TO.C,JP4*%
X121650000Y-125300000D02*
X121650000Y-124700000D01*
X122350000Y-124000000D02*
X123750000Y-124000000D01*
X123750000Y-126000000D02*
X122350000Y-126000000D01*
X124450000Y-124700000D02*
X124450000Y-125300000D01*
X121650000Y-124700000D02*
G75*
G02*
X122350000Y-124000000I699999J1D01*
G01*
X122350000Y-126000000D02*
G75*
G02*
X121650000Y-125300000I-1J699999D01*
G01*
X123750000Y-124000000D02*
G75*
G02*
X124450000Y-124700000I0J-700000D01*
G01*
X124450000Y-125300000D02*
G75*
G02*
X123750000Y-126000000I-700000J0D01*
G01*
%TO.C,JP2*%
X124550000Y-109300000D02*
G75*
G02*
X123850000Y-110000000I-700000J0D01*
G01*
X123850000Y-108000000D02*
G75*
G02*
X124550000Y-108700000I0J-700000D01*
G01*
X122450000Y-110000000D02*
G75*
G02*
X121750000Y-109300000I-1J699999D01*
G01*
X121750000Y-108700000D02*
G75*
G02*
X122450000Y-108000000I699999J1D01*
G01*
X124550000Y-108700000D02*
X124550000Y-109300000D01*
X123850000Y-110000000D02*
X122450000Y-110000000D01*
X122450000Y-108000000D02*
X123850000Y-108000000D01*
X121750000Y-109300000D02*
X121750000Y-108700000D01*
%TO.C,R4*%
X116722936Y-125910000D02*
X118177064Y-125910000D01*
X116722936Y-124090000D02*
X118177064Y-124090000D01*
%TO.C,J1*%
X126090000Y-117060000D02*
X133910000Y-117060000D01*
X127690000Y-117060000D02*
X127690000Y-116140000D01*
X133910000Y-117060000D02*
X133910000Y-110940000D01*
X126090000Y-116140000D02*
X126090000Y-117060000D01*
X127690000Y-116140000D02*
X126090000Y-116140000D01*
X127690000Y-115860000D02*
X127690000Y-116140000D01*
X127690000Y-115860000D02*
X126475000Y-115860000D01*
X131650000Y-115800000D02*
X133910000Y-115800000D01*
X131650000Y-115300000D02*
X133910000Y-115300000D01*
X129550000Y-114500000D02*
X129550000Y-113500000D01*
X133910000Y-114500000D02*
X129550000Y-114500000D01*
X129550000Y-113500000D02*
X133910000Y-113500000D01*
X126090000Y-111860000D02*
X127690000Y-111860000D01*
X127690000Y-111860000D02*
X127690000Y-112140000D01*
X126090000Y-110940000D02*
X126090000Y-111860000D01*
X127690000Y-110940000D02*
X127690000Y-111860000D01*
X133910000Y-110940000D02*
X126090000Y-110940000D01*
X130050000Y-115300000D02*
X131650000Y-115300000D01*
X131650000Y-116300000D01*
X130050000Y-116300000D01*
X130050000Y-115300000D01*
X130050000Y-111700000D02*
X131650000Y-111700000D01*
X131650000Y-112700000D01*
X130050000Y-112700000D01*
X130050000Y-111700000D01*
%TD*%
M02*
