%TF.GenerationSoftware,KiCad,Pcbnew,10.0.5*%
%TF.CreationDate,2026-10-03T19:54:52+03:00*%
%TF.ProjectId,UNI_MOSFET_KEY,554e495f-4d4f-4534-9645-545f4b45592e,rev?*%
%TF.SameCoordinates,Original*%
%TF.FileFunction,Soldermask,Top*%
%TF.FilePolarity,Negative*%
%FSLAX46Y46*%
G04 Gerber Fmt 4.6, Leading zero omitted, Abs format (unit mm)*
G04 Created by KiCad (PCBNEW 10.0.5) date 2026-10-03 19:54:52*
%MOMM*%
%LPD*%
G01*
G04 APERTURE LIST*
G04 Aperture macros list*
%AMRoundRect*
0 Rectangle with rounded corners*
0 $1 Rounding radius*
0 $2 $3 $4 $5 $6 $7 $8 $9 X,Y pos of 4 corners*
0 Add a 4 corners polygon primitive as box body*
4,1,4,$2,$3,$4,$5,$6,$7,$8,$9,$2,$3,0*
0 Add four circle primitives for the rounded corners*
1,1,$1+$1,$2,$3*
1,1,$1+$1,$4,$5*
1,1,$1+$1,$6,$7*
1,1,$1+$1,$8,$9*
0 Add four rect primitives between the rounded corners*
20,1,$1+$1,$2,$3,$4,$5,0*
20,1,$1+$1,$4,$5,$6,$7,0*
20,1,$1+$1,$6,$7,$8,$9,0*
20,1,$1+$1,$8,$9,$2,$3,0*%
%AMFreePoly0*
4,1,23,0.000000,0.745722,0.065263,0.745722,0.191342,0.711940,0.304381,0.646677,0.396677,0.554381,0.461940,0.441342,0.495722,0.315263,0.495722,0.250000,0.500000,0.250000,0.500000,-0.250000,0.495722,-0.250000,0.495722,-0.315263,0.461940,-0.441342,0.396677,-0.554381,0.304381,-0.646677,0.191342,-0.711940,0.065263,-0.745722,0.000000,-0.745722,0.000000,-0.750000,-0.500000,-0.750000,
-0.500000,0.750000,0.000000,0.750000,0.000000,0.745722,0.000000,0.745722,$1*%
%AMFreePoly1*
4,1,23,0.500000,-0.750000,0.000000,-0.750000,0.000000,-0.745722,-0.065263,-0.745722,-0.191342,-0.711940,-0.304381,-0.646677,-0.396677,-0.554381,-0.461940,-0.441342,-0.495722,-0.315263,-0.495722,-0.250000,-0.500000,-0.250000,-0.500000,0.250000,-0.495722,0.250000,-0.495722,0.315263,-0.461940,0.441342,-0.396677,0.554381,-0.304381,0.646677,-0.191342,0.711940,-0.065263,0.745722,0.000000,0.745722,
0.000000,0.750000,0.500000,0.750000,0.500000,-0.750000,0.500000,-0.750000,$1*%
G04 Aperture macros list end*
%ADD10RoundRect,0.150000X-0.587500X-0.150000X0.587500X-0.150000X0.587500X0.150000X-0.587500X0.150000X0*%
%ADD11O,1.750000X1.200000*%
%ADD12RoundRect,0.250000X-0.625000X0.350000X-0.625000X-0.350000X0.625000X-0.350000X0.625000X0.350000X0*%
%ADD13C,3.800000*%
%ADD14RoundRect,0.250000X-0.625000X0.400000X-0.625000X-0.400000X0.625000X-0.400000X0.625000X0.400000X0*%
%ADD15RoundRect,0.250001X-0.462499X-0.624999X0.462499X-0.624999X0.462499X0.624999X-0.462499X0.624999X0*%
%ADD16RoundRect,0.250000X-0.400000X-0.625000X0.400000X-0.625000X0.400000X0.625000X-0.400000X0.625000X0*%
%ADD17FreePoly0,0.000000*%
%ADD18FreePoly1,0.000000*%
%ADD19RoundRect,0.250000X0.625000X-0.350000X0.625000X0.350000X-0.625000X0.350000X-0.625000X-0.350000X0*%
G04 APERTURE END LIST*
%TO.C,JP1*%
G36*
X123000000Y-102750000D02*
G01*
X123300000Y-102750000D01*
X123300000Y-104250000D01*
X123000000Y-104250000D01*
X123000000Y-102750000D01*
G37*
%TO.C,JP3*%
G36*
X123000000Y-118250000D02*
G01*
X123300000Y-118250000D01*
X123300000Y-119750000D01*
X123000000Y-119750000D01*
X123000000Y-118250000D01*
G37*
%TO.C,JP4*%
G36*
X122900000Y-124250000D02*
G01*
X123200000Y-124250000D01*
X123200000Y-125750000D01*
X122900000Y-125750000D01*
X122900000Y-124250000D01*
G37*
%TO.C,JP2*%
G36*
X123000000Y-108250000D02*
G01*
X123300000Y-108250000D01*
X123300000Y-109750000D01*
X123000000Y-109750000D01*
X123000000Y-108250000D01*
G37*
%TD*%
D10*
%TO.C,U2*%
X111875000Y-122050000D03*
X110000000Y-123000000D03*
X110000000Y-121100000D03*
%TD*%
D11*
%TO.C,U1 conn*%
X102500000Y-109000000D03*
X102500000Y-107000000D03*
D12*
X102500000Y-105000000D03*
%TD*%
D13*
%TO.C,*%
X127000000Y-103000000D03*
%TD*%
%TO.C,*%
X127000000Y-127000000D03*
%TD*%
D12*
%TO.C,U2 conn*%
X102500000Y-120500000D03*
D11*
X102500000Y-122500000D03*
X102500000Y-124500000D03*
%TD*%
D13*
%TO.C,REF\u002A\u002A*%
X103000000Y-114500000D03*
%TD*%
D14*
%TO.C,R5*%
X107500000Y-112450000D03*
X107500000Y-115550000D03*
%TD*%
D15*
%TO.C,D1*%
X116987500Y-114000000D03*
X114012500Y-114000000D03*
%TD*%
D16*
%TO.C,R3*%
X119100000Y-119000000D03*
X116000000Y-119000000D03*
%TD*%
%TO.C,R2*%
X116000000Y-109000000D03*
X119100000Y-109000000D03*
%TD*%
D10*
%TO.C,U1*%
X110000000Y-105500000D03*
X110000000Y-107400000D03*
X111875000Y-106450000D03*
%TD*%
D16*
%TO.C,R1*%
X119100000Y-103500000D03*
X116000000Y-103500000D03*
%TD*%
D17*
%TO.C,JP1*%
X123800000Y-103500000D03*
D18*
X122500000Y-103500000D03*
%TD*%
D17*
%TO.C,JP3*%
X123800000Y-119000000D03*
D18*
X122500000Y-119000000D03*
%TD*%
%TO.C,JP4*%
X122400000Y-125000000D03*
D17*
X123700000Y-125000000D03*
%TD*%
%TO.C,JP2*%
X123800000Y-109000000D03*
D18*
X122500000Y-109000000D03*
%TD*%
D16*
%TO.C,R4*%
X119000000Y-125000000D03*
X115900000Y-125000000D03*
%TD*%
D19*
%TO.C,J1*%
X127550000Y-115000000D03*
D11*
X127550000Y-113000000D03*
%TD*%
M02*
